<svg width="690" height="690" viewBox="0 0 690 690" fill="none" xmlns="http://www.w3.org/2000/svg">
<circle cx="345" cy="345" r="342" fill="#2BBC8A" stroke="black" stroke-width="6"/>
<mask id="mask0_445_13215" style="mask-type:alpha" maskUnits="userSpaceOnUse" x="5" y="6" width="679" height="679">
<circle cx="344.5" cy="345.5" r="339.5" fill="#73808D"/>
</mask>
<g mask="url(#mask0_445_13215)">
<path d="M265.9 121.4C265.9 121.4 269.5 95.3 288.4 88.7C307.3 82.1 328.6 98 348.4 101C368.2 104 395.2 84.2 421.3 92.6C447.4 101 449.5 136.7 459.7 144.2C469.9 151.7 489.7 154.4 510.4 162.8C531.1 171.2 522.7 201.2 525.4 229.4C528.1 257.6 536.5 268.7 559 279.8C581.5 290.9 563.8 323 555.4 338.9C547 354.8 556.3 355.7 572.2 370.7C588.1 385.7 574.9 419.3 554.5 426.8C533.8 434.3 526.3 450.2 532.9 467.9C539.5 485.6 538.6 522.2 515.2 528.8C491.8 535.4 473.5 518 459.4 536.9C445.3 555.5 432.7 564.2 417.7 559.7C402.7 554.9 384.1 529.1 375.7 538.4C367.3 547.7 301.6 584.3 284.8 570.2C268 556.1 261.4 526.1 242.8 534.5C224.2 542.9 213.7 547.7 201.7 529.7C189.7 511.7 187.9 503 169.9 505.1C151.9 507.2 138.1 485.9 139.9 464.3C141.7 442.7 153.7 440.9 137.8 418.4C121.9 395.9 133 369.8 148 354.8C163 339.8 157.3 310.7 143.2 297.8C129.1 284.9 122.5 262.1 136.6 246.2C150.7 230.3 165.7 228.5 165.7 214.4C165.7 200.3 156.4 188.3 171.4 166.7C186.4 145.1 223 150.8 234.1 148.1C245.2 144.8 265.9 121.4 265.9 121.4V121.4Z" fill="#FFFCF2"/>
<path d="M574 368C570.4 364.4 567.1 361.7 564.1 359.6C554.5 351.8 552.4 350 557.8 339.8L558.7 338.3C565.3 325.7 576.7 304.7 571.9 289.7C570.1 284 566.2 279.8 560.5 276.8C538.3 265.7 531.1 254.9 528.4 228.5C527.5 220.7 527.8 212.9 527.8 205.4C528.1 185.3 528.1 166.4 511.6 159.8C502.9 156.2 494.2 153.8 486.7 151.4C476.2 148.4 467.2 145.4 461.5 141.5C458.5 139.4 455.8 133.1 453.1 126.5C447.4 112.7 440.2 95.5999 422.2 89.8999C406.3 84.7999 389.8 89.5999 375.7 93.4999C365.8 96.4999 356.5 99.1999 348.7 97.9999C341.8 97.0999 334.6 94.3999 327.1 91.3999C313.9 86.5999 300.1 81.1999 287.2 85.6999C268.9 91.9999 263.8 115.1 262.9 119.9C256.9 126.8 241.3 142.4 233.2 144.5C230.8 145.1 226.3 145.4 221.2 145.4C205 146 180.7 146.9 168.7 164.3C157 181.1 159.1 192.8 161.2 203C161.8 206.6 162.7 210.2 162.7 213.8C162.7 220.4 158.8 223.7 150.7 229.4C145.9 233 139.9 237.2 134.2 243.5C118.6 261.2 126.1 285.2 140.8 299.3C148.3 306.2 153.1 318.2 153.4 329.9C153.4 338.9 150.7 347 145.3 352.1C128.2 369.2 118.3 396.5 134.8 419.6C144.7 433.4 143.2 438.2 140.2 446.6C138.7 450.8 136.9 456.2 136.3 463.4C135.1 477.2 139.9 491 148.6 499.7C154.6 505.7 162.1 508.4 169.6 507.5C182.5 506.3 185.5 510.5 193 522.5C194.5 524.9 196.3 527.9 198.4 530.9C211.9 550.7 224.5 545.3 243.4 536.6C252.7 532.4 258.1 539.6 266.8 552.5C271.3 559.4 276.1 566.6 282.4 571.7C285.7 574.4 290.2 575.6 295.3 575.6C321.4 575.6 367.9 548.6 376.6 540.5C384.1 544.7 391.3 548.3 395.5 549.2L399.1 551.9C395.8 552.2 392.5 551.9 389.2 551C386.8 550.4 385.9 554 388.3 554.6C392.8 555.8 398.5 556.1 403.6 554.9C407.8 558.2 412 560.9 416.2 562.1C435.7 568.1 450.7 552.5 461.2 538.4C468.4 528.8 476.5 530 487.9 531.8C496 533 505.3 534.5 515.5 531.5C523.3 529.4 529.3 524.3 533.5 516.2C541 501.5 540.1 479.6 535.3 466.7C532.6 458.9 532.6 451.7 535.3 445.4C538.6 438.5 545.5 432.8 555.1 429.5C567.4 425 577.9 411.5 581.2 396.5C583.6 385.1 580.9 374.6 574 368V368ZM402.1 454.7C403.9 441.5 401.5 430.1 398.8 421.7C409.3 432.2 420.4 442.4 410.5 458C406 465.2 397.6 471.8 392.2 479.3C396.4 473.3 400.6 465.8 402.1 454.7V454.7ZM386.8 500.9C389.2 509 396.1 514.4 402.4 519.5C406.6 523.1 415 528.8 415.6 534.5C416.5 542.3 412.6 547.4 407.2 549.8L403.6 547.1C408.1 544.7 410.2 540.5 404.8 531.5C397.3 519.2 390.7 519.2 384.4 503C381.4 494.6 385 489.2 390.1 482.3C386.8 488 385 493.7 386.8 500.9V500.9ZM456.7 534.8C454.9 537.2 453.4 539 451.6 541.1C454 531.2 450.7 520.1 450.7 509C450.7 484.7 474.7 483.8 481 464C487.9 442.7 459.1 428.6 478.3 408.2C479.5 417.8 480.1 427.1 485.8 433.7C497.8 447.8 493.6 479 482.2 486.8C470.8 494.6 463.9 501.8 467.2 509.6C469.6 514.7 467.5 522.2 466 526.4C462.7 528.2 459.7 530.9 456.7 534.8ZM522.4 342.2C527.5 356.3 544 365.3 546.1 380.6C548.8 400.7 523.9 406.1 513.4 418.4C503.5 429.5 505 443.6 509.2 456.8C513.1 469.4 519.7 481.7 517 495.2C514 510.5 500.8 524 485.5 525.5C482.5 525.2 479.8 524.9 477.1 524.9C485.5 520.1 496 512.9 499.6 503.9C505.9 487.7 511 469.7 503.8 449.9C496.6 430.1 507.4 414.5 515.8 394.7C524.2 374.9 518.5 363.5 520.9 346.4C521.2 344 521.5 341.9 521.8 339.8C521.8 340.4 522.1 341.3 522.4 342.2V342.2ZM575.2 395.3C572.5 408.2 563.5 419.9 553 423.8C541.9 428 533.8 434.6 529.9 443C526.3 450.8 526.3 459.8 529.6 468.8C533.8 480.5 534.4 500.6 528.1 513.5C524.8 520.1 520 524 514 525.8C507.4 527.6 501.1 527.6 495.1 526.7C505 522.8 513.1 515 517.6 504.8C528.4 480.8 508.6 461.6 509.5 437.9C510.4 411.8 541.3 412.1 549.1 390.8C554.2 376.7 543.4 365.3 535.3 355.1C524.5 341.6 523.6 330.5 529.3 314.3C532 306.2 534.1 298.7 531.7 290.6C531.7 286.1 530.8 281.6 528.4 276.8C525.7 271.1 515.5 258.2 505.9 246.5C504.1 239.9 503.8 233 504.1 224.9C505 205.1 503.8 187.7 487 174.5C469 160.1 445 159.8 423.1 159.5C420.7 159.5 420.7 163.1 423.1 163.1C446.5 163.4 474.1 164 490.9 182.9C505.6 199.4 498.7 219.8 500.2 239.3C492.7 230.3 486.7 223.4 486.7 223.4L460.3 213.5L449.5 219.8C462.4 233.9 453.1 299.9 446.8 324.2C440.5 348.2 448.3 361.1 466 376.7C474.1 383.9 476.5 393.5 477.7 403.1C474.4 406.1 471.4 409.1 469.3 413C461.8 428 475 438.2 477.7 452.3C481.6 472.7 457 477.8 449.5 493.1C440.8 511.4 457.9 534.5 441.7 550.1L441.4 550.4C433.6 556.4 426.4 558.2 418.6 556.1C422.8 555.5 426.7 553.7 430.3 550.4C436.3 545 440.2 536.6 439.6 528.2C439.3 521.3 435.7 515.9 432.1 510.5C429.4 504.5 426.7 500.3 425.2 497C425.2 496.7 424.9 496.4 424.9 495.8C420.7 473.6 458.2 473 460 450.8C460.9 440.9 454.3 432.5 448.6 425C434.8 406.4 430.3 384.8 446.2 365.3C447.7 363.5 445 360.8 443.5 362.6C438.7 368.3 435.4 374.9 433.3 381.8C433.3 379.7 433 377.9 433 375.5C430.9 326.9 408.7 336.2 398.5 370.7C390.1 399.8 419.5 414.5 427.6 433.4C435.7 452.3 418.9 461.9 412.6 474.5C406.3 487.1 401.2 494.9 412.6 505.7C423.7 516.2 438.4 529.7 421.6 549.8C418 551 414.4 551.6 410.5 551C416.8 547.4 420.7 541.4 418.3 532.4C415.9 524 407.8 518.9 401.5 513.5C386.2 500.6 387.1 488.3 399.7 473.9C410.8 461.3 424.6 447.8 412.9 430.7C403.3 416.3 388.3 409.7 383.8 391.4C378.1 368.3 388.9 345.8 409 334.1C411.1 332.9 409.3 329.6 407.2 330.8C388.6 341.9 376.6 361.7 378.7 383.9C379.6 391.7 382 399.2 385.6 405.8L346.6 398L303.4 416.9C299.5 440 289.3 437.3 295.9 452C302.5 466.7 347.8 522.2 347.8 522.2C347.8 522.2 358.6 529.4 370 536C359.2 545.6 319 566.9 296.8 568.4C282.4 560 293.2 533.6 283.9 520.4C277.6 511.1 266.8 506 256.3 503C237.4 497.6 215.8 500.9 199 489.2C184.6 479 182.8 465.5 190.6 450.5C193.6 444.8 196.9 440.9 197.5 434.3C197.8 432.2 197.8 430.1 197.5 427.7C198.1 424.4 197.5 422 196 419.6C193.9 413 190.6 406.7 187.6 400.4C187.6 387.8 190.3 367.4 194.2 349.1C199 346.4 204.1 344.3 208.9 341.3C232.6 326.9 231.4 298.7 228.4 274.4C228.1 272 224.5 272 224.8 274.4C227.2 293 229.6 316.4 215.8 331.1C210.1 337.1 202.3 340.4 195.1 344C198.4 328.7 202.3 315.5 205 311.6L207.4 285.8C207.4 285.8 178.6 302 175.9 323.6C173.5 344.9 146.5 360.2 140.8 376.4C135.1 392.6 150.7 402.8 157.3 416C163.6 429.2 154.3 438.5 150.4 460.1C146.5 481.4 168.7 482.6 181.3 487.7C193.9 492.8 204.7 525.5 219.7 523.4C234.7 521.6 254.2 517.7 267.4 529.7C275.8 537.2 281.8 547.1 285.1 553.4C285.4 558.8 286.9 563.9 290.5 567.8C288.1 567.5 286.3 566.6 284.8 565.4C279.1 560.6 274.6 554 270.4 547.4C263.8 537.8 257.2 527.6 247.3 527.6C244.9 527.6 242.5 528.2 239.8 529.4C220.9 537.8 213.1 541.4 202.3 525.8C200.2 522.8 198.4 520.1 196.9 517.7C189.1 505.4 184.3 498.2 167.8 500C160.6 500.6 155.2 497 151.6 493.7C144.1 486.5 139.9 474.2 141.1 462.5C141.7 455.9 143.2 451.1 144.7 447.2C147.7 438.2 150.1 431.3 138.7 414.8C124.3 394.7 133.3 370.4 148.6 355.1C155.2 348.5 158.5 339.2 158.2 328.4C157.9 315.2 152.2 301.7 143.8 293.6C130.9 281.6 124.3 260.9 137.5 246.2C142.9 240.2 148 236.3 152.8 233C160.6 227.3 167.2 222.5 167.2 212.6C167.183 208.653 166.679 204.723 165.7 200.9C163.9 190.7 162.1 181.4 172.3 166.7C182.8 151.7 205.3 150.8 220.3 150.2C226 149.9 230.2 149.9 233.5 149C245.2 146 264.7 124.4 266.8 122L267.4 121.4V120.5C267.4 120.2 271 95.8999 287.8 90.1999C298.6 86.2999 310.6 90.7999 323.5 95.5999C331 98.2999 338.8 101.3 346.3 102.5C355.3 103.7 365.2 101 375.7 97.6999C389.8 93.4999 404.5 89.2999 418.6 93.7999C433.9 98.5999 440.5 114.5 445.9 127.1C449.2 134.9 451.9 141.5 456.4 144.8C462.7 149.6 472.3 152.3 483.4 155.6C490.9 158 499.3 160.4 507.7 164C520.6 169.4 520.3 184.7 520.3 204.2C520.3 212 520 220.1 520.9 228.2C523.6 256.7 532 269 556.3 281.3C560.5 283.4 563.5 286.4 564.7 290.6C568.9 303.2 558.4 323 552.1 334.7L551.2 336.2C543.4 350.6 549.4 355.4 559 363.5C561.7 365.9 565 368.3 568.6 371.9C577.3 379.4 576.4 389.6 575.2 395.3V395.3ZM268.3 312.8L261.1 314.9C258.4 299.3 251.8 283.4 245.2 269.6C244.3 267.5 241 269.3 241.9 271.4C248.5 285.5 255.1 300.2 257.5 315.8L239.8 320.9C239.8 320.9 214.9 352.1 214.9 371.6C214.9 385.1 218.8 389 229.9 395C230.5 396.5 230.8 397.7 231.7 399.2C238.3 411.2 258.4 414.8 262.9 427.4C265.9 435.8 262 445.7 255.7 450.5C254.2 451.7 252.7 452.6 251.2 453.8C248.5 455.9 245.8 458.3 244.3 461.6C241.3 468.8 244.3 476 249.7 480.8C254.8 485.3 261.1 487.1 267.1 489.5C277.3 493.7 285.7 499.4 291.7 509C301.6 524.3 303.1 543.2 295.6 559.7C294.7 561.8 297.7 563.9 298.9 561.5C308.8 540.2 304.3 514.4 287.5 497.9C283.3 493.7 278.5 490.4 273.1 488C269.8 486.5 266.5 485.6 263.2 484.4C260.2 483.2 257.5 481.7 254.5 480.2C246.1 468.5 246.4 459.8 255.7 455C262.9 449.6 270.4 444.5 269.2 434.3C268 423.5 257.5 416.6 249.4 410.9C244 407 238.9 403.1 235.9 398.3C239.8 400.4 244.3 402.5 249.7 405.5C276.7 420.5 279.4 428.6 275.5 442.1C271.6 455.6 263.2 456.2 274.3 465.2C281.8 471.2 295.9 478.4 303.4 491.6C304 493.7 304.3 495.8 305.2 497.9C305.8 500.6 307 503.6 308.2 506C308.5 508.1 308.5 510.2 308.5 512.3C308.5 512.3 309.4 511.4 310.6 509.6C314.2 515 319.6 518.6 326.8 518.3C329.2 518.3 329.2 514.4 326.8 514.7C322 512 317.2 509 312.4 506V505.7C314.2 500.9 314.8 493.4 307.6 485C307 484.1 306.4 483.5 305.5 482.6C304.3 478.7 302.8 475.1 300.1 471.5C297.1 467.6 291.7 465.5 289 461.6C284.5 455.3 283.9 450.8 285.4 446.3C289.6 440 299.2 438.2 299.8 422.9C300.4 404.6 294.4 363.5 294.4 363.5L268.3 312.8V312.8Z" fill="black"/>
<path d="M308.5 350C308.5 406.4 316.6 500.9 284.2 524C251.8 547.1 188.8 565.7 174.1 597.2C159.4 628.7 163.3 685.4 163.3 685.4H535.6C535.6 685.4 537.4 616.1 523 594.2C503.2 563.9 437.5 541.1 413.5 525.5C389.2 509.9 380.8 428.9 380.8 349.1L308.5 350Z" fill="#FFFCF2"/>
<path d="M539.2 689.3H160.6L159.7 686.6C159.4 685.1 155.8 627.5 170.5 595.7C180.7 573.8 211.3 558.5 241 543.5C256.3 536 270.7 528.5 281.8 521C307.6 503 306.1 431.6 304.9 379.7C304.6 369.2 304.6 359.3 304.6 350.3V346.4L384.7 345.2V349.1C384.7 445.1 396.1 509.6 415.6 522.2C422.8 527 433.6 532.1 446.2 538.4C475.3 552.5 511.9 570.2 526.3 592.4C541.3 615.2 539.5 685.1 539.5 686L539.2 689.3V689.3ZM166.9 681.5H531.7C531.4 674.3 529.9 611.9 519.7 596.3C506.5 576.2 471.1 558.8 442.9 545.3C430 539 418.9 533.6 411.4 528.8C382 509.9 377.2 412.4 376.9 353L312.4 354.2C312.4 362 312.7 370.7 312.7 379.7C313.9 436.4 315.4 506.9 286.3 527.6C274.9 535.7 260.2 542.9 244.6 550.7C216.1 565.1 186.4 579.8 177.7 599C167.8 619.7 166.6 676.7 166.9 681.5V681.5Z" fill="black"/>
<path d="M279.4 550.1C293.8 557 310.6 561.8 326.5 558.8C327.7 558.5 327.7 556.7 326.5 556.4C311.2 553.7 295.9 552.2 280.9 546.8C279.1 546.2 277.6 549.2 279.4 550.1ZM373.9 557.3C381.1 558.2 388.6 556.1 395.2 553.7C401.5 551.3 408.1 548.6 412.6 543.5C414.1 542 412.3 539.9 410.5 540.8C404.2 543.5 398.8 547.7 392.2 549.8C386.2 551.9 379.9 552.8 373.6 554.3C371.8 554.6 372.4 557 373.9 557.3V557.3Z" fill="black"/>
<path d="M155.23 690.08C155.23 690.08 150.97 624.44 163.06 600.23C175.15 576.02 187.27 563.21 274.12 524.06C274.12 524.06 294.04 549.68 344.59 550.4C395.14 551.12 419.35 524.06 419.35 524.06C419.35 524.06 469.18 546.83 481.3 554.66C493.42 562.49 517.6 575.3 529.72 591.68C541.84 608.06 539.56 690.08 539.56 690.08H155.23Z" fill="#FFFCF2"/>
<path d="M532.12 589.91C521.86 576.02 503.71 564.92 490.45 556.82C487.66 555.11 485.08 553.55 482.92 552.14C470.77 544.28 422.65 522.26 420.61 521.33C419.41 520.79 418 521.09 417.13 522.05C416.89 522.32 393.16 548.06 344.65 547.4C296.32 546.71 276.67 522.44 276.49 522.2C275.65 521.12 274.15 520.73 272.89 521.3C185.92 560.51 172.96 573.71 160.39 598.88C147.97 623.72 152.11 689.81 152.29 690.68C152.59 692.06 153.82 693.08 155.23 693.08H539.56C541.15 693.08 542.47 691.85 542.56 690.26C542.65 688.7 544.75 606.95 532.12 589.91V589.91ZM527.32 593.48C527.44 593.66 527.56 593.87 527.71 594.05C524.68 592.52 521.41 591.41 518.14 590.48C520.72 588.71 522.52 588.26 522.58 588.26L522.49 587.81C524.23 589.61 525.88 591.53 527.32 593.48V593.48ZM487.33 561.95C496.72 567.68 508.63 574.97 518.08 583.52C488.89 605.21 492.91 642.32 492.01 687.08H207.85C207.64 661.94 208.99 619.73 191.68 585.59C192.13 585.5 192.1 584.75 191.65 584.69L191.05 584.6C188.5 580.64 186.16 578.18 184.27 576.65C197.02 565.37 218.35 553.1 259.93 533.84C265.15 541.07 284.59 562.1 337.03 567.29C341.5 567.74 345.82 567.95 349.96 567.95C398.56 567.95 426.16 539.84 431.98 533.24C447.61 540.56 471.88 552.17 479.68 557.21C481.87 558.62 484.48 560.21 487.33 561.95V561.95ZM165.16 602.81C174.52 607.28 185.05 611.03 195.43 611.18C195.52 611.18 195.58 611.12 195.64 611.09C196.51 614.12 197.35 617.42 198.13 621.05C185.29 618.8 173.8 616.43 161.77 611.03C162.7 608.36 163.84 605.63 165.16 602.81V602.81ZM177.61 583.25C179.71 584.15 181.9 584.87 184.15 585.32C186.34 588.17 188.92 592.49 191.53 598.94C184.48 597.08 177.52 595.28 170.71 592.58C172.69 589.37 174.94 586.31 177.61 583.25V583.25ZM182.23 583.01C181.06 582.74 179.89 582.44 178.72 582.05C179.08 581.66 179.47 581.24 179.86 580.85C180.49 581.33 181.27 582.02 182.23 583.01ZM285.97 537.83C284.74 539 283.72 540.47 282.67 541.79C282.04 542.6 281.41 543.41 280.81 544.25C279.07 543.17 277.48 542.09 276.04 541.04C277.87 538.94 279.91 537.02 282.01 535.19C283.24 536.03 284.53 536.9 285.97 537.83V537.83ZM290.65 540.59C289.15 542.81 287.83 545.15 286.51 547.46C284.77 546.56 283.18 545.66 281.68 544.73C282.43 543.86 283.18 543.02 283.93 542.12C284.95 540.92 286.06 539.72 286.9 538.37C288.07 539.12 289.33 539.87 290.65 540.59ZM298.6 544.4C296.95 546.5 295.48 548.75 293.98 550.97C291.73 550.04 289.66 549.05 287.71 548.06C289.18 545.84 290.65 543.56 291.94 541.22C294.01 542.33 296.2 543.38 298.6 544.4V544.4ZM304.33 546.65C302.95 548.84 301.81 551.24 300.7 553.55C298.78 552.89 296.98 552.2 295.24 551.48C296.86 549.35 298.57 547.22 300.04 545C301.39 545.54 302.83 546.11 304.33 546.65V546.65ZM328.57 560.18C329.41 557.66 330.31 555.11 330.85 552.53C332.23 552.68 333.67 552.83 335.11 552.92C334.21 555.47 333.52 558.11 332.92 560.75C331.42 560.6 329.98 560.39 328.57 560.18ZM327.46 560.03C322.39 559.25 317.68 558.32 313.33 557.27C314.32 554.93 315.34 552.5 316.12 550.07C320.32 551.06 324.88 551.84 329.77 552.41C328.84 554.87 328.15 557.48 327.46 560.03V560.03ZM312.04 556.94C310.39 556.52 308.77 556.07 307.21 555.62C308.41 553.34 309.61 551 310.51 548.6C311.8 548.96 313.15 549.32 314.53 549.68C313.57 552.05 312.79 554.54 312.04 556.94ZM305.95 555.26C304.54 554.84 303.16 554.39 301.84 553.94C303.13 551.69 304.45 549.38 305.44 547.01C306.67 547.43 307.9 547.85 309.22 548.24C307.96 550.46 306.91 552.86 305.95 555.26ZM399.67 541.58C400.9 543.71 402.13 545.87 403.45 547.94C401.11 549.26 398.59 550.58 395.92 551.81C394.87 549.53 393.73 547.25 392.62 545C392.56 544.91 392.5 544.88 392.44 544.82C394.896 543.845 397.308 542.764 399.67 541.58ZM407.05 537.47C407.89 538.46 408.73 539.48 409.57 540.47C410.26 541.25 410.92 542.06 411.61 542.84C409.48 544.31 407.14 545.81 404.62 547.28C403.39 545.15 402.07 543.11 400.72 541.04C403.03 539.84 405.13 538.64 407.05 537.47V537.47ZM412.72 533.69C413.41 534.74 414.13 535.76 414.94 536.72C415.51 537.41 416.17 538.22 416.89 538.97C415.69 539.93 414.37 540.92 412.96 541.91C412.21 541.07 411.37 540.26 410.62 539.42L408.1 536.81C409.81 535.73 411.34 534.71 412.72 533.69V533.69ZM417.67 529.79C418.27 530.45 418.87 531.11 419.5 531.74C420.37 532.64 421.21 533.63 422.14 534.53C421.03 535.55 419.74 536.63 418.33 537.8C417.73 537.23 417.1 536.66 416.59 536.06C415.66 535.01 414.79 533.93 413.95 532.79C415.42 531.68 416.65 530.66 417.67 529.79ZM391.84 545.48C392.8 547.76 393.73 550.07 394.75 552.35C382.93 557.69 368.05 561.8 350.29 561.89C350.71 559.04 350.86 556.1 350.41 553.31C367.27 552.83 381.04 549.44 391.81 545.12C391.81 545.21 391.81 545.36 391.84 545.48ZM420.04 527.66C421.45 528.32 423.61 529.31 426.25 530.54C425.47 531.35 424.51 532.31 423.31 533.42C422.44 532.46 421.48 531.56 420.58 530.63C419.98 530.03 419.35 529.43 418.75 528.8C419.26 528.41 419.68 527.99 420.04 527.66ZM349.27 553.31C349.12 556.19 349.12 559.04 348.91 561.89C346.72 561.89 344.47 561.8 342.19 561.65C342.55 559.91 342.73 558.11 342.46 556.34C342.4 555.89 341.65 555.89 341.59 556.34C341.35 558.11 341.17 559.82 340.87 561.53C339.79 561.44 338.71 561.38 337.6 561.29C336.43 561.17 335.32 561.05 334.18 560.9C334.93 558.29 335.62 555.68 336.07 553.01C338.8 553.19 341.62 553.34 344.53 553.37C346.18 553.43 347.71 553.34 349.27 553.31V553.31ZM281.08 534.47C278.8 536.09 276.85 538.1 275.08 540.29C272.89 538.64 271.06 537.05 269.59 535.61C271.81 533.96 274.12 532.28 276.01 530.3C277.36 531.53 279.04 532.94 281.08 534.47V534.47ZM273.34 527.69C273.85 528.23 274.54 528.92 275.32 529.64C272.98 531.11 270.85 532.97 268.75 534.8C267.4 533.42 266.32 532.22 265.54 531.23C268.09 530.09 270.67 528.92 273.34 527.69ZM169.99 593.75C177.07 596.87 184.48 599.57 192.16 600.59C193.24 603.41 194.32 606.59 195.37 610.19C185.17 607.64 175.42 605.72 165.67 601.7C165.7 601.67 165.7 601.61 165.73 601.58C167.11 598.82 168.52 596.24 169.99 593.75V593.75ZM157.54 634.1C165.28 638.06 173.83 641.27 182.41 641.99C182.98 642.05 183.07 641.18 182.53 641.03C173.92 638.54 165.7 636.38 157.57 632.72C157.69 630.05 157.96 626.99 158.53 623.66C170.83 630.53 185.59 636.38 199.75 636.26C200.17 636.26 200.26 635.63 199.84 635.51C185.41 631.82 172.24 629.06 158.77 622.34C159.34 619.22 160.18 615.86 161.32 612.35C172.45 618.35 185.68 622.67 198.4 622.4C204.28 649.22 202.18 677.81 201.76 687.11H157.84C156.52 664.19 157.48 637.55 157.54 634.1V634.1ZM497.77 687.08C498.04 684.14 496.42 639.65 499.36 630.05C507.88 633.89 517.15 636.5 526.39 637.31C527.02 637.37 527.11 636.38 526.54 636.23C517.39 633.86 508.54 631.34 499.66 628.31C500.11 625.64 500.62 623.15 501.16 620.81C507.97 623.24 514.81 625.31 521.95 626.78C522.58 626.9 522.85 626 522.22 625.82C515.26 623.87 508.33 621.8 501.52 619.43C502.18 616.79 502.93 614.36 503.68 612.14C511.39 614.75 519.19 617.33 527.11 619.13C527.77 619.28 527.98 618.38 527.38 618.14C519.85 615.17 511.99 612.92 504.19 610.73C505 608.6 505.84 606.65 506.68 604.88C513.67 607.31 520.78 609.83 527.95 611.39C528.73 611.57 529 610.52 528.28 610.22C521.59 607.46 514.42 605.48 507.37 603.53C508.54 601.31 509.74 599.39 510.91 597.77C516.94 599.93 523.06 602.48 529.27 603.89C529.93 604.04 530.44 603.05 529.75 602.72C524.05 600.11 517.81 598.43 511.81 596.54C513.46 594.47 515.05 592.88 516.49 591.68C520.9 593.09 525.04 594.98 529.3 596.72C539.8 616.34 536.89 678.98 536.68 687.08" fill="black"/>
<path d="M243.1 283.1C243.1 283.1 237.7 268.1 233.2 259.4C228.7 250.7 222.4 240.5 213.4 237.8C204.4 235.1 201.4 249.5 204.7 262.7C208 275.9 217.3 304.4 219.7 315.5C222.1 326.6 225.1 339.8 230.5 338C235.9 336.2 251.8 314.9 243.1 283.1Z" fill="#FFFCF2"/>
<path d="M226.3 339.8C221.8 337.4 219.4 328.4 216.7 315.8C215.5 309.2 211.6 296.6 208 284.3C205.6 276.2 203.2 268.4 201.7 263C199 252.5 200.2 241.7 204.7 237.2C207.1 234.8 210.1 234.2 213.4 235.1C223.3 237.8 229.9 248.3 235 257.9C239.8 266.6 244.9 281.3 245.2 281.9V282.2C254.5 315.5 237.4 337.7 230.8 340.1C230.2 340.4 229.6 340.4 229 340.4C228.1 340.7 227.2 340.4 226.3 339.8V339.8ZM230.8 260.6C226 251.9 220.6 242.6 212.5 240.5C211 240.2 209.8 240.5 208.6 241.4C205.3 244.7 204.7 253.4 206.8 262.1C208.3 267.5 210.4 275 212.8 283.1C216.4 295.4 220.3 308.3 221.8 314.9C224.2 327.2 226.6 334.1 228.7 335.3H229C232.3 334.1 248.8 314.9 240.4 283.7C240.1 282.5 235 268.4 230.8 260.6V260.6Z" fill="black"/>
<path d="M207.4 247.1C213.1 244.7 218.2 251.3 221.8 257C226.6 264.5 229.6 273.5 230.5 282.8V283.4C230.5 284 230.5 284.9 230.8 285.5C230.8 286.1 230.2 286.1 230.2 285.5C229.9 284.3 229.6 282.8 229.3 281.3C229.3 281.3 229 281 229 280.7C225.4 278.9 223.6 279.8 223.6 283.1C223.6 285.2 224.2 287.6 224.5 289.7C225.4 293.3 227.2 296.6 228.4 300.2C228.7 300.8 227.8 301.4 227.5 300.8C224.8 296 219.7 284.9 223 279.2C224.5 276.5 226.9 276.8 228.7 278.6C227.2 272.6 225.1 265.7 222.1 260C215.8 273.5 219.1 287.6 222.4 302.6C222.4 303.2 221.8 303.5 221.5 302.9C217.3 289.1 213.4 270.8 221.5 259.4C217.9 252.8 213.1 247.7 207.4 248C207.1 248.3 206.8 247.1 207.4 247.1V247.1Z" fill="black"/>
<path d="M454.9 283.1C454.9 283.1 460.3 268.1 464.8 259.4C469.3 250.7 475.6 240.5 484.6 237.8C493.6 235.1 496.6 249.5 493.3 262.7C490 275.9 480.7 304.4 478.3 315.5C476.2 326.6 472.9 339.8 467.5 338C462.1 336.2 446.2 314.9 454.9 283.1V283.1Z" fill="#FFFCF2"/>
<path d="M469 340.7C468.4 340.7 467.8 340.7 467.2 340.4C460.6 338 443.5 315.8 452.8 282.5V282.2C453.1 281.6 458.2 266.9 463 258.2C468.1 248.6 474.7 238.1 484.6 235.4C487.9 234.5 491.2 235.4 493.3 237.5C497.8 242 499 252.5 496.3 263.3C494.8 268.7 492.7 276.5 490 284.6C486.4 296.9 482.5 309.5 481.3 316.1C478.9 328.7 476.2 337.7 471.7 340.1C470.8 340.4 469.9 340.7 469 340.7V340.7ZM457.3 283.7C448.6 314.9 465.1 334.1 468.7 335.3H469C471.1 334.1 473.5 327.2 475.9 314.9C477.4 308 481 295.4 484.9 283.1C487.3 275 489.7 267.2 490.9 262.1C493.3 253.4 492.4 244.4 489.1 241.4C488.2 240.5 486.7 240.2 485.2 240.5C477.1 242.6 471.4 252.2 466.9 260.6C463 268.4 457.9 282.5 457.3 283.7V283.7Z" fill="black"/>
<path d="M490.6 247.1C484.9 244.7 479.8 251.3 476.2 257C471.4 264.5 468.4 273.5 467.5 282.8V283.4C467.5 284 467.5 284.9 467.2 285.5C467.2 286.1 467.8 286.1 467.8 285.5C468.1 284.3 468.4 282.8 468.7 281.3C469 281 469 280.7 469.3 280.4C472.9 278.6 474.7 279.5 474.7 282.8C474.7 284.9 474.1 287.3 473.8 289.4C472.9 293 471.1 296.3 469.9 299.9C469.6 300.5 470.5 301.1 470.8 300.5C473.5 295.7 478.6 284.6 475.3 278.9C473.8 276.2 471.4 276.5 469.6 278.3C471.1 272.3 473.2 265.4 476.2 259.7C482.5 273.2 479.2 287.3 475.9 302.3C475.9 302.9 476.5 303.2 476.8 302.6C481 288.8 484.9 270.5 476.8 259.1C480.4 252.5 485.2 247.4 490.9 247.7C490.9 248.3 491.2 247.1 490.6 247.1V247.1Z" fill="black"/>
<path d="M463.6 203.6C457.6 171.2 423.7 121.4 352 121.4C280.3 121.4 256.3 159.5 245.5 188C236.5 212.3 236.5 251.9 236.5 251.9C236.5 251.9 237.7 337.1 266.5 390.2C294.4 441.2 353.2 485.6 405.1 425.6C469.6 351.2 466.9 252.2 466.9 252.2C466.9 252.2 467.8 226.7 463.6 203.6V203.6Z" fill="#FFFCF2"/>
<path d="M351.1 458.3C348.7 458.3 346.6 458.3 344.2 458C308.8 454.1 279.1 421.4 263.2 392C234.4 338.9 232.6 255.5 232.6 251.9C232.6 250.1 232.6 211.1 241.9 186.5C259.3 140 295.3 117.5 352 117.5C384.7 117.5 413.5 127.7 435.1 147.5C451.6 162.5 463.9 183.2 467.5 203C471.7 225.8 471.1 250.1 471.1 252.2C471.1 254.3 471.4 278.6 464.2 311.9C457.3 343.4 442 389.3 408.1 428.3C390.7 448.1 371.5 458.3 351.1 458.3V458.3ZM352 125.3C298.9 125.3 265.3 146.3 249.1 189.2C240.4 212.6 240.4 251.6 240.4 251.9C240.4 252.8 241.9 336.8 270.1 388.4C285.1 416 312.7 446.9 345.1 450.2C365.5 452.3 385 443.3 402.4 422.9C465.1 350.6 463.3 253.1 463.3 251.9C463.3 251.6 463.9 226.7 459.7 204.2C456.4 186.2 445.3 167 429.7 153.2C409.9 134.9 382.9 125.3 352 125.3V125.3Z" fill="black"/>
<path d="M395.65 377.21C396.19 376.55 395.41 375.71 394.81 376.07C394.48 376.01 394.09 376.13 393.97 376.55C393.91 376.73 393.85 376.88 393.79 377.03C387.04 384.26 378.4 384.17 369.61 380.57C364.36 378.41 361.36 378.14 356.38 381.05C351.82 383.72 348.46 383.18 343.6 381.8C341.14 381.11 338.86 380.63 336.34 381.23C328 383.3 324.13 395.87 314.23 392.33C313.54 392.09 313.18 392.9 313.48 393.41C313.39 393.71 313.45 394.04 313.75 394.25C316.12 396.02 318.73 396.98 321.4 397.43C321.25 397.73 321.28 398.15 321.64 398.39C327.005 402.082 333.049 404.676 339.421 406.021C345.794 407.367 352.37 407.438 358.77 406.231C365.17 405.023 371.268 402.561 376.712 398.986C382.156 395.411 386.839 390.793 390.49 385.4C390.52 385.37 390.49 385.34 390.49 385.34C392.53 383.42 394.12 380.93 395.08 377.75C395.29 377.6 395.5 377.42 395.65 377.21V377.21ZM330.67 386.39C337.18 380.78 341.08 383.63 348.22 384.71C350.47 385.04 352.3 384.83 354.37 383.93C356.08 383.18 357.52 381.86 359.26 381.14C364.24 379.13 366.64 381.05 370.72 382.73C373.54 383.9 376.27 384.8 379.33 384.86C384.28 384.95 388.9 383.21 392.62 380.18C391.72 381.98 390.58 383.48 389.26 384.68C380.98 392.3 365.29 389.75 354.76 390.11C342.58 390.5 328.3 400.49 316.75 394.4C322.42 394.88 326.32 390.14 330.67 386.39V386.39ZM323.32 397.76C326.56 398 329.92 397.52 333.22 396.68C337.06 395.69 340.72 394.16 344.56 393.14C350.11 391.64 355.69 391.52 361.39 391.7C369.46 391.97 379.42 392.06 386.65 388.19C371.14 407.03 344.08 411.26 323.32 397.76V397.76Z" fill="black"/>
<path d="M280.9 282.5C276.7 287.9 277.3 294.8 282.1 299C287.2 303.5 295.6 304.7 301.6 299.3C304.6 296.3 306.7 292.1 305.8 288.2C305.5 287 304.9 285.5 304.3 284.3C303.7 282.8 302.8 281.3 301.6 280.1C295.6 275 286 275.9 280.9 282.5V282.5Z" fill="#FFFCF2"/>
<path d="M306.4 287.9C306.1 286.4 305.5 285.2 304.6 284C304 282.2 303.1 281 301.6 279.8C298.9 277.4 295 276.2 291.1 276.5C286.9 276.8 282.7 278.9 280 282.2C275.5 287.6 276.1 295.1 281.2 299.9C283.9 302.6 288.1 304.1 292 304.1C295.3 304.1 298.9 302.9 301.6 300.2C305.5 296.3 307.3 291.8 306.4 287.9V287.9ZM304.6 287.6C302.8 287.9 301 287.9 298.9 288.2C298.9 287.9 298.6 287.6 298.6 287.6C299.8 287.3 300.7 286.7 301.9 286.1C302.5 285.8 303.1 285.8 303.7 285.5C304 286.1 304.3 287 304.6 287.6V287.6ZM302.2 282.8L303.1 284.6V284.9C301.3 285.8 299.8 286.4 298 287.3C297.7 287 297.7 286.7 297.4 286.4C299.2 284.9 300.7 283.7 302.2 282.8V282.8ZM300.4 280.7C301 281 301.3 281.6 301.6 281.9C300.1 282.8 298.3 284 297.1 285.5L296.8 285.2C296.5 284.9 296.2 284.9 296.2 284.6C296.8 283.7 297.4 282.5 298 281.6C298.3 281 298.9 280.4 299.2 279.8C299.8 280.1 300.1 280.4 300.4 280.7V280.7ZM294.7 281C294.7 280.1 295 278.9 295 278C296.2 278.3 297.4 278.6 298.6 279.5C298 280.1 297.7 280.7 297.4 281.3C296.8 282.2 296.2 283.4 295.6 284.3C295.3 284 294.7 284 294.4 283.7C294.7 282.8 294.7 281.9 294.7 281V281ZM291.4 277.7H292.6C293.2 277.7 293.8 277.7 294.4 278C294.1 278.9 294.1 279.8 294.1 281C294.1 281.9 293.8 283.1 293.8 284C293.2 284 292.9 283.7 292.3 283.7C292.3 282.8 292 281.9 292 281C291.7 279.8 291.4 278.6 291.4 277.7V277.7ZM279.1 288.5C280.9 289.1 283.3 289.7 285.1 289.4V291.5C283 291.2 281.2 291.5 279.1 291.5C278.8 290.3 279.1 289.4 279.1 288.5ZM279.1 292.1C281.2 291.8 283 291.8 285.1 291.8C285.1 292.1 285.4 292.4 285.4 292.4C284.5 292.7 283.3 293 282.4 293.6C281.5 293.9 280.6 294.2 280 294.5C279.7 293.9 279.4 293 279.1 292.1V292.1ZM281.2 296.6C280.9 296.3 280.6 295.7 280.3 295.4C281.2 295.1 282.1 294.8 282.7 294.2C283.6 293.9 284.5 293.6 285.4 293C284.2 294.5 282.7 295.4 281.2 296.6V296.6ZM282.4 298.1L281.5 297.2C283 296.3 284.5 295.1 286 293.9C286.3 294.2 286.3 294.5 286.6 294.5C286 295.1 285.4 295.7 284.8 296.6C284.2 297.2 283.6 298.1 283 299C283 298.7 282.7 298.4 282.4 298.1V298.1ZM283.9 299.3C284.5 298.7 285.1 297.8 285.7 296.9C286.3 296.3 286.9 295.7 287.2 295.1C287.5 295.4 287.8 295.4 288.1 295.7C287.5 296.3 287.2 297.2 286.6 298.1C286 298.7 285.7 299.3 285.1 300.2C284.8 299.9 284.5 299.6 283.9 299.3V299.3ZM286 300.5C286.6 299.9 286.9 299.3 287.2 299L289 296.3C289.3 296.3 289.6 296.6 289.9 296.6C289.3 298.1 289.3 299.9 288.4 301.4C287.5 301.1 286.9 300.8 286 300.5V300.5ZM289 301.4C289.9 299.9 290.2 298.1 290.5 296.6C291.1 296.6 291.4 296.9 292 296.9C291.7 298.4 292 300.2 292 302C291.1 302 290.2 301.7 289 301.4ZM292.9 302C292.9 300.5 292.9 298.7 292.6 296.9C293.2 296.9 293.5 296.9 294.1 296.6C294.4 298.1 295 299.9 295.6 301.4C294.7 301.7 293.8 301.7 292.9 302ZM301.9 297.2C300.7 296.6 299.5 295.7 298.3 294.8C298.3 295.1 298 295.4 298 295.4C298.9 296.3 300.1 297.2 301 297.8L300.4 298.4C299.8 299 299.5 299.3 298.9 299.6C298.6 299 298 298.4 297.7 297.8C297.4 297.2 297.1 296.9 296.8 296.3C296.5 296.3 296.2 296.6 296.2 296.6C296.5 297.2 296.8 297.5 297.1 298.1C297.4 298.7 298 299.6 298.3 300.2C297.7 300.5 296.8 300.8 296.2 301.1C295.6 299.6 295.3 297.8 294.4 296.3C294.7 296.3 294.7 296.3 294.7 296L293.8 295.1C291.7 295.7 289 295.1 287.5 293.6C286.3 292.7 285.7 291.2 286 289.7C285.4 289.4 284.8 288.8 284.8 287.9C283.9 287.6 282.7 287.6 281.8 287.6C280.9 287.6 280 287.3 279.1 287C279.4 286.1 279.7 284.9 280.3 284C281.2 284.6 282.1 284.9 283 285.5C283.6 285.8 283.9 286.1 284.5 286.4C284.5 286.1 284.5 285.8 284.8 285.5C284.2 285.2 283.9 285.2 283.3 284.9C282.4 284.6 281.5 284 280.6 283.7C280.9 283.4 281.2 283.1 281.2 282.8L283 281C283.3 281.6 283.9 282.2 284.5 282.8C284.8 283.1 285.1 283.7 285.7 284C286 283.7 286.3 283.7 286.3 283.4L286 283.1C285.4 282.5 285.1 281.9 284.5 281.3C284.2 281 283.9 280.4 283.6 280.1C284.2 279.5 285.1 279.2 286 278.6C286.3 279.5 286.6 280.1 287.2 280.7C287.5 281.3 288.1 281.9 288.4 282.5C288.7 282.5 289.3 282.5 289.6 282.8L287.8 280.1C287.5 279.5 287.2 278.6 286.9 278C287.8 277.4 289 277.4 290.2 277.1C290.2 278 290.5 279.2 290.8 280.1C291.1 281 291.1 281.9 291.4 282.8C290.8 282.8 290.5 283.1 290.2 283.1C290.5 283.4 291.1 283.7 291.1 284H292.3C293.8 284 295 284.6 295.9 285.2C296.5 285.8 296.8 286.1 297.1 287C297.4 287.6 297.7 287.9 297.7 288.5C298 289.4 297.7 290.3 297.4 291.2C297.7 291.5 298 291.8 298.3 292.4C298.3 292.4 298.3 292.1 298.6 292.1C299.2 292.7 300.4 293 301 293.6C301.6 293.9 302.5 294.5 303.1 294.8C302.8 296.3 302.2 296.6 301.9 297.2V297.2ZM303.4 294.8C302.8 294.8 301 293.6 300.7 293.3C300.1 293 299.8 292.7 299.2 292.7C299.2 292.7 298.9 292.7 298.6 292.4C298.9 291.8 298.9 291.2 299.2 290.6C301 291.2 302.8 291.2 304.6 291.5C304.3 292.7 304 293.9 303.4 294.8V294.8ZM304.6 290.9L299.2 290V288.8C301 288.8 303.1 288.5 304.6 288.2C304.9 289.4 304.9 290 304.6 290.9ZM296.2 291.8H296.8C297.7 289.1 296.2 286.1 293.2 285.2C292.6 284.9 292 284.9 291.4 284.9C292.3 287 291.4 290.3 288.1 290.3H287.2C287.5 292.1 288.1 293.6 290.2 294.5C291.4 295.1 292.9 295.1 293.8 294.8C293.8 293.6 294.4 291.8 296.2 291.8V291.8Z" fill="black"/>
<path d="M292 252.2C271.3 252.2 254.5 269 254.5 289.7C254.5 310.4 271.3 327.2 292 327.2C312.7 327.2 329.5 310.4 329.5 289.7C329.5 269 312.7 252.2 292 252.2ZM313.3 300.5C307 300.5 261.4 300.5 259.6 297.8C257.8 295.4 261.7 289.1 267.1 285.8C272.5 282.5 279.7 278 289.9 277.4C300.1 276.8 316.6 280.4 322.6 297.2C323.5 299.3 319.3 300.5 313.3 300.5V300.5Z" fill="#FFFCF2"/>
<path d="M268.3 279.2C272.2 276.5 284.5 267.8 298.6 271.4C312.1 274.7 319.9 284.6 320.2 284.9C320.2 285.2 320.5 285.2 320.8 285.2H321.1C321.4 284.9 321.4 284.6 321.1 284.3C320.8 284 312.7 273.8 298.9 270.5C284.2 266.9 271.6 275.6 267.4 278.6C267.1 278.9 267.1 279.2 267.1 279.5C267.4 279.5 268 279.5 268.3 279.2V279.2ZM324.1 296.6C317.2 281.6 307.3 275.9 288.4 276.2C280 276.2 271.6 280.4 265.6 284.9H265.3C265 284.9 261.1 284.3 259 279.5C258.7 278.9 257.8 278.6 257.2 278.9C256.6 279.2 256.3 280.1 256.6 280.7C258.7 284.6 261.4 286.4 263.5 287L261.4 289.1H261.1C259.6 289.1 254.8 289.1 253.3 287.3C252.7 286.7 252.1 286.7 251.5 287.3C250.9 287.9 250.9 288.5 251.5 289.1C253.6 291.2 257.5 291.8 259.6 291.8C258.7 293 258.4 294.2 258.1 295.4V296.9C257.2 297.2 256 297.5 254.2 298.1C253 298.1 252.7 299 253 299.6C253.3 300.2 253.6 300.5 254.2 300.5H254.8C257.2 299.6 258.4 299.3 259 299C259.3 299.3 259.9 299.6 260.5 299.9C265 301.4 281.5 301.7 297.4 301.7C305.2 301.7 313 301.7 319.3 301.4H320.2C320.8 301.4 321.4 300.8 321.4 300.2C321.4 299.6 320.8 299 320.2 299H319.3C287.8 299.6 266.2 299 261.4 297.5C260.5 297.2 260.2 296.9 260.2 295.7C261.1 290.3 274.6 278.9 288.4 278.9C306.4 278.6 315.4 283.7 321.7 297.8C322 298.4 322.9 298.7 323.5 298.4C324.1 298.1 324.4 297.2 324.1 296.6V296.6ZM320.8 303.8C308.2 306.5 296.8 309.2 283.9 309.5C283.3 309.5 283.3 310.4 283.9 310.4C295.9 311.6 310.3 310.4 321.4 305C322 304.7 321.7 303.8 320.8 303.8Z" fill="black"/>
<path d="M396.4 282.5C392.2 287.9 392.8 294.8 397.6 299C402.7 303.5 411.1 304.7 417.1 299.3C420.1 296.3 422.2 292.1 421.3 288.2C421 287 420.4 285.5 419.8 284.3C419.2 282.8 418.3 281.3 417.1 280.1C410.8 275 401.2 275.9 396.4 282.5V282.5Z" fill="#FFFCF2"/>
<path d="M421.6 287.9C421.3 286.4 420.7 285.2 419.8 284C419.2 282.2 418.3 281 416.8 279.8C414.1 277.4 410.2 276.2 406.3 276.5C402.1 276.8 397.9 278.9 395.2 282.2C390.7 287.6 391.3 295.1 396.4 299.9C399.1 302.6 403.3 304.1 407.2 304.1C410.5 304.1 414.1 302.9 416.8 300.2C421 296.3 422.5 291.8 421.6 287.9V287.9ZM419.8 287.6C418 287.9 416.2 287.9 414.1 288.2C414.1 287.9 413.8 287.6 413.8 287.6C415 287.3 415.9 286.7 417.1 286.1C417.7 285.8 418.3 285.8 418.9 285.5C419.5 286.1 419.8 287 419.8 287.6V287.6ZM417.7 282.8L418.6 284.6V284.9C416.8 285.8 415.3 286.4 413.5 287.3C413.2 287 413.2 286.7 412.9 286.4C414.7 284.9 416.2 283.7 417.7 282.8V282.8ZM415.9 280.7C416.5 281 416.8 281.6 417.1 281.9C415.6 282.8 413.8 284 412.6 285.5L412.3 285.2C412 284.9 411.7 284.9 411.7 284.6C412.3 283.7 412.9 282.5 413.5 281.6C413.8 281 414.4 280.4 414.7 279.8C415.3 280.1 415.6 280.4 415.9 280.7V280.7ZM410.2 281C410.2 280.1 410.5 278.9 410.5 278C411.7 278.3 412.9 278.6 414.1 279.5C413.5 280.1 413.2 280.7 412.9 281.3C412.3 282.2 411.7 283.4 411.1 284.3C410.8 284 410.2 284 409.9 283.7C409.9 282.8 410.2 281.9 410.2 281V281ZM406.9 277.7H408.1C408.7 277.7 409.3 277.7 409.9 278C409.6 278.9 409.6 279.8 409.6 281C409.6 281.9 409.3 283.1 409.3 284C408.7 284 408.4 283.7 407.8 283.7C407.8 282.8 407.5 281.9 407.5 281C407.2 279.8 406.9 278.6 406.9 277.7C406.6 277.7 406.6 277.7 406.9 277.7V277.7ZM394.6 288.5C396.4 289.1 398.8 289.7 400.6 289.4V291.5C398.5 291.2 396.7 291.5 394.6 291.5C394.3 290.3 394.3 289.4 394.6 288.5ZM394.6 292.1C396.7 291.8 398.5 291.8 400.6 291.8C400.6 292.1 400.9 292.4 400.9 292.4C400 292.7 398.8 293 397.9 293.6C397 293.9 396.1 294.2 395.5 294.5C394.9 293.9 394.6 293 394.6 292.1V292.1ZM396.7 296.6C396.4 296.3 396.1 295.7 395.8 295.4C396.7 295.1 397.6 294.8 398.2 294.2C399.1 293.9 400 293.6 400.9 293C399.4 294.5 397.9 295.4 396.7 296.6V296.6ZM397.9 298.1L397 297.2C398.5 296.3 400 295.1 401.5 293.9C401.8 294.2 401.8 294.5 402.1 294.5C401.5 295.1 400.9 295.7 400.3 296.6C399.7 297.2 399.1 298.1 398.5 299C398.5 298.7 398.2 298.4 397.9 298.1V298.1ZM399.4 299.3C400 298.7 400.6 297.8 401.2 296.9C401.8 296.3 402.4 295.7 402.7 295.1C403 295.4 403.3 295.4 403.6 295.7C403 296.3 402.7 297.2 402.1 298.1C401.5 298.7 401.2 299.3 400.6 300.2C400.3 299.9 399.7 299.6 399.4 299.3V299.3ZM401.5 300.5C402.1 299.9 402.4 299.3 402.7 299L404.5 296.3C404.8 296.3 405.1 296.6 405.4 296.6C404.8 298.1 404.8 299.9 403.9 301.4C403 301.1 402.1 300.8 401.5 300.5V300.5ZM404.5 301.4C405.4 299.9 405.7 298.1 406 296.6C406.6 296.6 406.9 296.9 407.5 296.9C407.2 298.4 407.5 300.2 407.5 302C406.6 302 405.4 301.7 404.5 301.4ZM408.4 302C408.4 300.5 408.4 298.7 408.1 296.9C408.7 296.9 409 296.9 409.6 296.6C409.9 298.1 410.5 299.9 411.1 301.4C410.2 301.7 409.3 301.7 408.4 302ZM417.4 297.2C416.2 296.6 415 295.7 413.8 294.8C413.8 295.1 413.5 295.4 413.5 295.4C414.4 296.3 415.6 297.2 416.5 297.8L415.9 298.4C415.3 299 415 299.3 414.4 299.6C414.1 299 413.5 298.4 413.2 297.8C412.9 297.2 412.6 296.9 412.3 296.3C412 296.3 411.7 296.6 411.7 296.6C412 297.2 412.3 297.5 412.6 298.1C412.9 298.7 413.5 299.6 413.8 300.2C413.2 300.5 412.3 300.8 411.7 301.1C411.1 299.6 410.8 297.8 409.9 296.3C410.2 296.3 410.2 296.3 410.2 296L409.3 295.1C407.2 295.7 404.5 295.1 403 293.6C401.8 292.7 401.2 291.2 401.5 289.7C400.9 289.4 400.3 288.8 400.3 287.9C399.4 287.6 398.2 287.6 397.3 287.6C396.4 287.6 395.5 287.3 394.6 287C394.9 286.1 395.2 284.9 395.8 284C396.7 284.6 397.6 284.9 398.5 285.5C399.1 285.8 399.4 286.1 400 286.4C400 286.1 400 285.8 400.3 285.5C399.7 285.2 399.4 285.2 398.8 284.9C397.9 284.6 397 284 396.1 283.7C396.4 283.4 396.7 283.1 396.7 282.8L398.5 281C398.8 281.6 399.4 282.2 400 282.8C400.3 283.1 400.6 283.7 401.2 284C401.5 283.7 401.8 283.7 401.8 283.4L401.5 283.1C400.9 282.5 400.6 281.9 400 281.3C399.7 281 399.4 280.4 399.1 280.1C399.7 279.5 400.6 279.2 401.5 278.6C401.8 279.5 402.1 280.1 402.7 280.7C403 281.3 403.6 281.9 403.9 282.5C404.2 282.5 404.8 282.5 405.1 282.8L403.3 280.1C403 279.5 402.7 278.6 402.4 278C403.3 277.4 404.5 277.4 405.7 277.1C405.7 278 406 279.2 406.3 280.1C406.6 281 406.6 281.9 406.9 282.8C406.3 282.8 406 283.1 405.7 283.1C406 283.4 406.6 283.7 406.6 284H407.8C409.3 284 410.5 284.6 411.4 285.2C412 285.8 412.3 286.1 412.6 287C412.9 287.6 413.2 287.9 413.2 288.5C413.5 289.4 413.2 290.3 412.9 291.2C413.2 291.5 413.5 291.8 413.8 292.4C413.8 292.4 413.8 292.1 414.1 292.1C414.7 292.7 415.9 293 416.5 293.6C417.1 293.9 418 294.5 418.6 294.8C418 296.3 417.7 296.6 417.4 297.2V297.2ZM418.9 294.8C418.3 294.8 416.5 293.6 416.2 293.3C415.6 293 415.3 292.7 414.7 292.7C414.7 292.7 414.4 292.7 414.1 292.4C414.4 291.8 414.4 291.2 414.7 290.6C416.5 291.2 418.3 291.2 420.1 291.5C419.8 292.7 419.5 293.9 418.9 294.8V294.8ZM420.1 290.9L414.7 290V288.8C416.5 288.8 418.6 288.5 420.1 288.2C420.1 289.4 420.4 290 420.1 290.9ZM411.7 291.8H412.3C413.2 289.1 411.7 286.1 408.7 285.2C408.1 284.9 407.5 284.9 406.9 284.9C407.8 287 406.9 290.3 403.6 290.3H402.7C403 292.1 403.6 293.6 405.7 294.5C406.9 295.1 408.4 295.1 409.3 294.8C409 293.6 409.9 291.8 411.7 291.8V291.8Z" fill="black"/>
<path d="M406 252.2C385.3 252.2 368.5 269 368.5 289.7C368.5 310.4 385.3 327.2 406 327.2C426.7 327.2 443.5 310.4 443.5 289.7C443.5 269 426.7 252.2 406 252.2ZM384.4 300.5C378.1 300.5 374.2 299.3 375.1 297.2C381.1 280.4 397.6 276.8 407.8 277.4C418 278 425.2 282.5 430.6 285.8C436 289.1 439.9 295.4 438.1 297.8C436.3 300.5 390.4 300.5 384.4 300.5V300.5Z" fill="#FFFCF2"/>
<path d="M376.9 285.2C377.2 285.2 377.2 285.2 377.5 284.9C377.5 284.9 385.6 274.7 399.1 271.4C413.2 267.8 425.5 276.5 429.4 279.2C429.7 279.5 430 279.2 430.3 278.9C430.6 278.6 430.3 278.3 430 278C425.8 275 413.2 266.3 398.5 269.9C384.4 273.5 376.6 283.4 376.3 283.7C376 284 376 284.3 376.3 284.6L376.9 285.2ZM446.8 287C446.2 286.4 445.3 286.4 445 287C443.2 288.8 438.7 288.8 437.2 288.8H436.9C436.3 288.2 435.7 287.3 434.8 286.7C436.6 286.1 439.6 284.3 441.7 280.4C442 279.8 441.7 278.9 441.1 278.6C440.5 278.3 439.6 278.6 439.3 279.2C436.9 284 433 284.3 433 284.6H432.7C426.7 279.8 418.3 275.9 409.9 275.9C391 275.6 381.1 281.3 374.2 296.3C373.9 296.9 374.2 297.8 374.8 298.1C375.4 298.4 376.3 298.1 376.6 297.5C382.9 283.4 391.9 278.3 409.9 278.6C423.7 278.9 437.2 290 438.1 295.4C438.1 296.3 437.8 296.9 436.9 297.2C432.4 298.7 410.5 299 379 298.7H378.1C377.5 298.7 376.9 299.3 376.9 299.9C376.9 300.5 377.5 301.1 378.1 301.1H379C385.3 301.1 393.1 301.4 400.9 301.4C416.8 301.4 433.3 301.1 437.8 299.6C438.4 299.3 439 299.3 439.3 298.7C439.9 298.7 441.1 299 443.5 300.2H444.1C444.7 300.2 445 299.9 445.3 299.3C445.6 298.7 445.3 297.8 444.7 297.5C442.9 296.9 441.7 296.3 440.8 296.3V294.8C440.5 293.6 440.2 292.4 439.3 291.2C441.7 291.2 445.6 290.6 447.4 288.5C447.4 288.5 447.4 287.6 446.8 287V287ZM375.1 302.3C374.5 302 373.9 302.9 374.5 303.2C376.9 305 379 306.5 382 307.1C382.6 307.1 382.9 306.5 382.3 306.2C379.9 304.7 377.5 303.8 375.1 302.3V302.3Z" fill="black"/>
<path d="M271.99 243.77C276.55 243.56 323.17 253.91 324.46 255.86C325.75 257.81 322.51 264.92 321.01 265.37C319.51 265.79 275.44 251.78 273.52 252.2C271.57 252.62 252.79 259.97 251.5 259.34C250.18 258.68 267.46 243.98 271.99 243.77V243.77Z" fill="#FFFCF2"/>
<path d="M250.84 260.6C251.89 261.14 253.54 260.84 267.82 255.68C270.34 254.75 272.95 253.82 273.73 253.61C275.62 253.76 288.13 257.48 298.21 260.48C315.88 265.73 319.69 266.78 321.01 266.78C321.19 266.78 321.34 266.75 321.46 266.72C323.47 266.15 325.09 261.95 325.39 261.11C326.11 259.19 326.74 256.55 325.72 255.02C323.65 251.9 275.14 242.15 271.99 242.3C267.1 242.54 250.6 256.28 250.06 258.8C249.85 259.58 250.18 260.27 250.84 260.6ZM272.05 245.21C272.44 245.18 273.16 245.24 274.09 245.39L280.3 252.29C275.47 250.94 273.82 250.64 273.19 250.79C273.1 250.82 272.95 250.85 272.83 250.91L266.2 248.27C268.78 246.5 271 245.27 272.05 245.21V245.21ZM283.78 253.28L277.12 245.87C279.43 246.26 282.34 246.83 285.58 247.49L290.29 255.17C287.77 254.42 285.61 253.79 283.78 253.28V253.28ZM293.02 255.98L288.13 248.03C290.29 248.48 292.54 248.96 294.82 249.47L296.71 257.06C295.42 256.67 294.19 256.31 293.02 255.98ZM313.33 261.95C312.34 261.65 311.29 261.35 310.18 261.05L312.19 253.55C313.63 253.91 314.98 254.27 316.21 254.6L313.33 261.95V261.95ZM318.1 255.11C319 255.35 319.81 255.59 320.53 255.8L317.65 263.15C316.93 262.94 316.09 262.73 315.22 262.49L318.1 255.11V255.11ZM308.35 260.51C306.91 260.09 305.41 259.64 303.91 259.19L305.05 251.81C306.88 252.23 308.65 252.68 310.33 253.1L308.35 260.51V260.51ZM320.65 263.9C320.38 263.87 319.99 263.78 319.54 263.66L322.39 256.43C322.81 256.58 323.14 256.7 323.35 256.82C323.68 258.14 321.79 262.79 320.65 263.9V263.9ZM298.99 257.75C298.96 257.75 298.9 257.72 298.87 257.72L296.92 249.95C299.02 250.43 301.12 250.91 303.16 251.39L302.05 258.68C301.03 258.35 299.98 258.02 298.99 257.75V257.75ZM266.83 252.98C266.47 253.1 266.08 253.25 265.66 253.4C264.07 253.46 261.22 253.61 258.94 253.73C260.65 252.32 262.51 250.88 264.31 249.59L270.01 251.84C269.11 252.14 268.12 252.53 266.83 252.98V252.98ZM255.1 257.06C255.52 256.67 256.03 256.22 256.54 255.77C257.35 255.74 258.34 255.68 259.42 255.62C257.86 256.16 256.36 256.67 255.1 257.06Z" fill="black"/>
<path d="M426.01 243.77C421.45 243.56 374.83 253.91 373.54 255.86C372.25 257.81 375.49 264.92 376.99 265.37C378.49 265.79 422.56 251.78 424.48 252.2C426.43 252.62 445.21 259.97 446.5 259.34C447.79 258.71 430.54 243.98 426.01 243.77Z" fill="#FFFCF2"/>
<path d="M448 258.83C447.46 256.31 430.96 242.57 426.07 242.33C422.89 242.18 374.41 251.93 372.34 255.05C371.32 256.58 371.95 259.22 372.67 261.14C372.97 261.98 374.62 266.18 376.6 266.75C376.72 266.78 376.84 266.81 377.05 266.81C378.34 266.81 382.18 265.76 399.85 260.51C409.93 257.51 422.44 253.79 424.33 253.64C425.08 253.85 427.69 254.78 430.24 255.71C444.52 260.87 446.14 261.14 447.22 260.63C447.82 260.27 448.15 259.58 448 258.83ZM431.8 248.27L425.17 250.91C425.05 250.88 424.9 250.82 424.81 250.79C424.18 250.64 422.53 250.97 417.7 252.29L423.91 245.39C424.84 245.27 425.56 245.21 425.95 245.21C427 245.27 429.22 246.5 431.8 248.27V248.27ZM407.74 255.17L412.45 247.49C415.69 246.83 418.6 246.26 420.91 245.87L414.25 253.28C412.39 253.79 410.23 254.42 407.74 255.17V255.17ZM401.26 257.06L403.15 249.47C405.43 248.96 407.68 248.48 409.84 248.03L404.95 255.98C403.81 256.31 402.58 256.67 401.26 257.06ZM381.76 254.6C382.99 254.27 384.34 253.91 385.78 253.55L387.79 261.05C386.68 261.38 385.63 261.68 384.64 261.95L381.76 254.6V254.6ZM382.81 262.49C381.91 262.73 381.1 262.97 380.38 263.15L377.5 255.8C378.22 255.59 379.03 255.35 379.93 255.11L382.81 262.49V262.49ZM387.64 253.1C389.32 252.68 391.09 252.26 392.92 251.81L394.06 259.19C392.56 259.64 391.09 260.06 389.62 260.51L387.64 253.1V253.1ZM374.68 256.79C374.89 256.67 375.22 256.55 375.64 256.4L378.49 263.63C378.01 263.75 377.62 263.84 377.38 263.87C376.21 262.79 374.32 258.14 374.68 256.79V256.79ZM395.95 258.65L394.84 251.36C396.88 250.88 398.98 250.4 401.08 249.92L399.13 257.69C399.1 257.69 399.04 257.72 399.01 257.72C398.02 258.02 396.97 258.35 395.95 258.65V258.65ZM427.99 251.84L433.69 249.59C435.49 250.88 437.35 252.35 439.06 253.73C436.78 253.61 433.93 253.46 432.34 253.4C431.92 253.25 431.53 253.1 431.17 252.98C429.88 252.53 428.89 252.14 427.99 251.84ZM438.61 255.62C439.69 255.68 440.65 255.71 441.49 255.77C442 256.22 442.48 256.67 442.93 257.06C441.64 256.67 440.14 256.16 438.61 255.62Z" fill="black"/>
<path d="M338.5 300.5C332.8 313.7 328 326.9 324.4 341C323.2 345.8 322.3 351.2 327.1 354.2C329.2 355.4 331.3 355.1 333.7 355.4C337.9 355.7 340 358.7 343 361.1C346.3 364.1 350.2 365.3 354.1 362.6C356.2 361.1 357.7 358.4 359.8 356.9C362.5 355.1 365.8 355.7 368.2 353.9C376.9 347.9 369.1 335.6 364.9 329.3C363.7 327.8 361.3 329.3 362.5 330.8C364.9 334.1 367 337.7 368.5 341.3C369.4 343.4 369.7 345.8 369.1 348.2C367.9 351.8 364.9 352.4 361.9 353C358.3 353.9 356.5 356.3 353.8 359C348.4 364.4 344.5 357.5 340.3 354.2C339.1 353.3 337.9 352.7 336.1 352.4C333.7 352.1 331 352.7 328.9 351.5C325.3 349.1 326.8 344.6 327.4 341.3C328 338.6 328.6 335.9 329.5 333.2C332.5 322.4 336.7 311.9 341.2 301.7C341.5 300.2 339.1 298.7 338.5 300.5Z" fill="black"/>
<path d="M292.9 182.9C292.9 182.9 312.7 146.3 343.3 140.9C374.2 135.2 399.4 149.3 391.9 171.8C384.4 194.3 377.8 233.6 408.7 230.9C439.6 228.2 461.2 248.6 463 269.3C465.7 297.8 434.8 317.9 438.7 343.4C442.6 368.9 470.5 354.5 485.5 371.6C500.5 388.7 457.3 394.1 453.7 411.8C450.1 429.5 475.3 452 490.3 448.4C490.3 448.4 472.6 438.2 481.9 427.7C491.2 417.5 521.5 421.7 536.2 403.4C556 379.1 546.4 342.5 520.3 326.6C494.2 310.7 526 290.9 541.9 264.8C557.8 238.7 529.6 209.6 493.3 191.9C457 174.2 466 156.2 473.5 143.3C481 130.4 459.4 103.1 413.5 108.8C367.6 114.5 378.7 97.7 361 85.4C343.6 72.5 322 78.2 309.7 95C297.4 111.8 261.1 102.5 255.4 124.1C255.4 124.1 219.7 110 207.7 127.7C195.7 145.4 202 156.8 186.1 167.9C170.2 179 164.5 202.4 176.8 220.4C189.1 238.4 145 234.5 141.4 259.7C137.8 284.9 163.9 292.4 169.6 324.2C175.3 356 156.4 364.4 150.1 385.1C143.8 405.8 178.3 416.9 203.5 427.1C228.7 437.3 207.1 471.2 207.1 471.2C207.1 471.2 253 443.9 242.8 414.2C232.6 384.5 219.4 386 226 368.3C232.6 350.6 259.6 353.3 259.6 332.6C259.6 311.9 246.4 318.8 244.6 296.9C242.8 274.4 252.1 280.1 256.9 254.9C260.5 235.7 243.7 227.6 244.6 207.2C245.5 186.8 275.2 170 292.9 182.9Z" fill="#FFFCF2"/>
<path d="M549.1 363.5C546.4 347.3 536.2 332.3 522.1 323.9C517 320.9 514.3 317.6 513.7 314C512.5 306.8 520.3 297.2 529 287C534.4 280.4 540.1 273.5 544.9 266C550 257.6 551.2 248.6 548.5 239C543.1 221 523.6 202.7 495.1 188.6C481.3 182 473.2 174.8 471.1 167C468.7 159.2 472.3 152 476.8 143.9C479.8 138.5 479.2 131.3 474.7 124.7C466.9 113 446.5 101 414.1 104.9C384.4 108.5 380.5 102.8 375.4 94.6998C372.7 90.7998 370 85.9998 364 82.0998C345.4 69.4998 322 73.9998 308.5 93.1998C303.7 99.7998 293.5 102.2 283.6 104C271.6 106.4 259.3 109.1 254.5 119.9C245.2 116.9 217.6 109.4 206.2 125.9C200.8 134 198.7 140.6 197.2 146.6C195.1 154.1 193.6 159.5 185.5 165.5C167.5 178.4 162.7 203.6 175.3 222.2C176.5 224 177.1 225.8 176.8 226.7C175.9 229.4 170.2 232.1 164.8 234.5C154.3 239.3 141.4 245 139.3 259.4C137.2 273.8 144.1 283.1 151.6 293C158.2 301.7 165.1 310.7 167.5 325.1C171.1 345.2 164.5 355.1 157.6 365.9C154 371.6 150.1 377.3 148 384.5C141.4 405.8 170.2 417.2 195.4 427.4C198.1 428.3 200.5 429.5 202.9 430.4C208 432.5 211 435.5 212.5 440C216.4 452.3 205.3 469.7 205.3 470L198.7 480.5L209.5 474.2C211.6 473 257.2 445.4 246.4 413.6C241.9 400.4 236.8 393.2 232.9 387.8C228.1 380.9 226.3 378.5 229.6 369.8C232.3 362.9 238.6 359.3 245.5 355.7C253.9 351.2 263.5 346.1 263.5 333.2C263.5 321.5 259.3 317.3 255.7 313.7C252.4 310.4 249.4 307.1 248.5 297.5C247.6 286.1 249.4 282.8 252.4 278C255.1 273.5 258.4 268.1 260.5 256.1C262.6 245 258.4 237.5 254.8 230C251.2 223.4 248.2 217.1 248.5 208.1C248.8 199.1 255.7 190.1 266.2 185.3C270.4 183.2 274.6 182.3 278.8 182.3C274.6 184.1 271 187.1 268.6 191.9C266.5 195.8 266.2 200.3 267.1 204.5C269.2 212.6 283.3 222.8 275.2 231.5C273.7 233.3 276.1 236 277.9 234.2C281.8 229.7 282.1 224.6 280 219.2C277.6 213.8 272.2 209.6 270.7 203.6C268 191.3 278.5 185 289 184.4C290.2 185 291.4 185.6 292.6 186.5L295.3 188.6L297.1 185.6C297.1 185.6 297.4 184.7 298.3 183.5C307.9 171.8 321.7 160.4 336.7 157.7C356.2 154.4 367 172.1 361.6 189.5C359.2 197 354.7 203.3 352.3 210.5C349.9 217.4 349.3 226.4 354.7 232.4C360.7 239 387.7 235.1 385.9 246.2C385.6 248.6 389.2 249.5 389.5 247.1C390.1 241.7 389.5 238.4 384.7 235.1C379.3 231.5 372.4 235.4 367 233.3C361.6 232.4 355.3 232.4 354.1 219.8C355 213.8 356.8 207.8 360.1 202.7C361.6 199.4 363.4 196.4 364.6 192.8C367.3 185 368.5 176.3 365.5 168.5C355.6 142.1 328.3 153.5 309.4 168.2C317.8 158.3 330.4 147.5 345.7 144.8C363.7 141.5 380.2 145.1 388 154.1C392.2 158.9 393.4 165.2 391 171.8C388 181.1 378.7 212.6 390.4 227.3C394.9 233 401.8 235.4 411.1 234.8C424.6 233.6 437.2 237.2 447.1 244.7C455.8 251.6 461.5 260.9 462.1 270.5C463.3 284 456.4 295.7 449.8 307.1C442.9 318.8 436 331.1 437.8 344.6C440.2 361.1 452.5 363.2 463.3 365C471.4 366.2 479.5 367.7 485.2 374.3C487 376.4 487.9 378.2 487.6 379.7C487 383.6 480.1 387.8 473.5 391.7C464.8 397.1 454.6 402.8 452.8 412.1C451 421.4 455.5 431.9 464.8 440.9C473.8 449.6 484.9 454.1 493 452L500.2 450.2L493.9 446.6C491.5 445.4 485.2 440.6 484.3 435.8C484 434 484.6 432.2 486.1 430.7C489.4 427.1 496.9 425.3 505 423.5C517.3 420.8 531.4 417.5 540.4 406.1C548.2 393.5 551.8 378.8 549.1 363.5V363.5ZM469 128.3C472.3 133.1 472.9 137.9 471.1 141.2C467.2 147.8 461.5 158 464.8 169.1C467.8 178.4 476.5 186.5 492.1 194.3C518.8 207.2 537.7 224.9 542.5 240.8C544.9 248.6 543.7 256.1 539.5 263C535.3 270.2 529.6 276.8 524.2 283.1C523.6 283.7 523 284.3 522.7 285.2C524.8 281.6 526.6 278.3 527.8 274.7C531.1 264.8 531.1 253.7 528.1 243.5C522.1 222.5 504.4 207.2 484.3 200C467.8 194 441.1 193.7 444.7 169.1C446.2 158.3 454.6 152 452.8 140C450.1 122.9 435.7 114.5 420.4 110.9C446.5 109.1 462.7 118.7 469 128.3ZM144.4 260.3C145.9 249.2 157 244.4 166.6 240.2C174.1 236.9 180.4 233.9 181.9 228.5C182.8 225.5 181.9 222.5 179.5 218.9C168.7 203.3 172.6 181.4 188.2 170.6C189.1 170 190 169.1 190.9 168.5C187.9 174.5 186.1 181.1 185.2 188.3C182.2 216.2 202.6 247.4 179.8 270.8C173.8 277.1 165.1 282.2 161.5 290.6C160.9 292.4 160.3 294.2 160 295.7L155.5 289.4C148 279.8 142.3 272.3 144.4 260.3V260.3ZM534.1 401.3C526.3 410.9 513.4 413.9 502 416.6C492.7 418.7 484.6 420.5 479.8 425.6C477.1 428.6 475.9 432.2 476.5 435.8C477.1 439.1 478.9 442.4 481.3 444.8C476.8 443.3 471.7 440.3 467.2 435.8C459.4 428.3 455.5 419.3 457 412.4C458.5 405.8 467.2 400.7 475 396.2C483.1 391.4 490.9 386.6 492.1 380C492.7 376.7 491.5 373.1 488.2 369.8C481 361.7 471.4 360.2 462.7 358.7C451.9 356.9 443.8 355.4 442 343.4C440.2 332 446.5 321.2 453.1 309.8C460.3 297.5 467.8 284.9 466.3 269.6C465.4 258.2 458.8 247.4 448.9 239.6C438.1 231.2 423.7 227.3 408.7 228.5C401.8 229.1 396.7 227.6 393.4 223.4C385.6 213.5 389.2 191 394.9 173.6C397.9 164.9 396.4 156.5 390.7 149.9C381.7 139.4 362.8 135.2 342.7 138.8C316 143 297.4 170 292 178.7C283.6 174.2 272.8 174.2 262.3 179C250 185 241.9 195.8 241.3 206.9C240.7 217.7 244.9 225.2 248.2 231.8C251.8 239 255.1 245 253.3 254C251.2 264.8 248.5 269.6 245.8 273.8C242.5 279.2 239.8 283.7 241 296.9C241.9 308.9 246.1 313.1 250 317C253.3 320.6 256 323.3 256 332.3C256 341.3 250.3 344.6 241 349.7C233.8 353.6 225.7 357.8 222.4 367.1C218.2 378.8 221.5 383.6 226.6 390.5C230.2 395.6 235 402.2 239.2 414.8C245.8 434 226.6 452.3 214.3 461.9C216.4 456.5 218.2 449.9 217.9 443.6V443C217.6 432.8 211.9 426.2 203.8 420.2C196.9 415.1 188.2 411.5 183.1 404.6C173.8 391.1 181.9 381.8 190 371.6C196 364.1 202.6 356.3 202.3 346.1C202.3 327.2 182.5 313.1 187.3 293.9C190.6 280.1 205 275.6 211 263.6C217 251 211.3 237.2 206.5 224.9C198.4 204.8 198.7 185 215.5 169.1C232.9 152.9 257.8 152 280 157.1C282.4 157.7 283.3 154.1 280.9 153.5C251.8 146.9 217 151.7 202 180.8C195.1 194.3 196 207.5 201.1 221.3C205.6 233 211.9 244.4 209.2 257.6C207.1 268.4 195.4 273.8 189.1 281.6C181 291.5 181.3 301.7 185.8 313.4C190.9 326.3 200.8 336.8 197.2 351.5C194.8 361.1 188.2 367.1 182.2 374.9C176.2 383 171.7 392 176.5 401.6C181.6 412.4 193.6 417.2 202.9 424.1L195.7 421.4C172.6 412.4 146.5 401.9 151.6 386C153.7 379.4 157 374.3 160.6 368.6C167.8 357.5 175.3 345.8 171.4 323.6C169.9 314.9 166.9 308 163.3 302C161.5 289.7 169 284.6 176.2 278C181 273.5 185.8 269.3 188.8 263.6C195.7 250.7 193.6 235.4 191.2 221.6C187 198.5 185.2 177.2 201.1 158.3C217 139.4 242.5 134 265.6 142.1C268 143 268.9 139.4 266.5 138.5C241.9 129.8 215.5 137 199.6 154.4C200.2 152.3 200.8 150.5 201.4 148.4C202.9 142.7 204.7 136.7 209.5 129.5C213.4 123.5 220.9 121.7 228.1 121.7C240.4 121.7 253.3 126.8 253.6 126.8L256.9 128L257.8 124.7C260.5 114.8 271 112.7 283.3 110L287.8 109.1C287.2 109.7 286.6 110 286 110.6C279.4 116.9 275.2 125.6 272.2 134C271.3 136.4 274.9 137.3 275.8 134.9C279.7 123.8 285.4 113.6 296.2 107.9C300.4 105.5 304.9 103.4 308.2 100.4L311.8 96.7998C323.5 80.5998 343.6 76.3998 359.2 87.1998C364.3 90.4998 366.7 94.3998 369.1 98.2998C370.9 101 372.7 103.4 374.8 105.5C337 102.5 287.2 102.2 283.9 146C283.6 148.4 287.5 148.4 287.5 146C290.8 102.8 344.5 106.4 381.1 109.7C385.9 111.8 392.5 112.7 402.4 112.1H403C421.9 112.7 449.5 119.9 448.9 144.2C448.6 155.6 438.4 164.6 439.6 176C441.4 193.4 461.2 197 474.4 200.6C504.4 208.4 532.9 234.8 525.1 268.7C522.4 281.3 511 292.7 508.6 305C507.4 308.3 506.8 311.6 507.4 314.6C508.3 320 511.9 324.5 518.8 328.7C531.4 336.5 540.4 349.7 543.1 364.4C545.5 377.9 542.2 391.1 534.1 401.3V401.3ZM477.7 313.4C488.2 293 505 276.2 500.5 251C497.5 234.5 485.5 223.7 470.2 218.3C457.6 213.8 444.1 215.3 431.8 211.1C408.1 203 419.2 182.6 419.2 165.8C418.9 148.1 407.5 132.2 392.5 123.8C357.4 103.7 308.8 126.2 289.9 159.2C288.7 161 292 163.1 293.2 161C315.4 122.3 384.4 99.4998 410.5 147.2C417.4 159.8 414.4 171.5 412.6 184.7C412 190.1 411.4 195.8 413.5 200.9C419.2 214.1 434.5 215.9 447.1 217.7C475.6 221.3 503.5 235.7 496.3 269.9C492.1 289.4 475.3 302 470.5 320.9C467.5 332.9 473.5 342.8 482.8 350C489.1 355.1 496.3 358.4 502.6 363.2C510.4 369.2 513.7 373.1 513.7 383.3C513.7 394.7 509.5 398.6 500.2 404.9C498.1 406.1 500.2 409.4 502 408.2C514.3 400.1 524.8 388.1 517 373.1C505.3 350.6 460.3 347 477.7 313.4V313.4ZM287.8 166.7C265.9 157.1 238.6 163.1 226.3 185C220.9 194.6 218.8 206 220.6 217.1C221.8 224.6 225.1 230 228.4 236.6C236.5 252.8 231.4 264.2 222.7 278.3C216.1 288.8 208.3 301.7 214 314.3C216.4 319.4 220.9 322.4 224.2 326.6C239.2 346.1 223 349.7 214.6 359.6C208.3 367.1 205.6 377.9 207.7 387.5C211.3 404.3 230.8 412.4 230.5 430.4C230.5 432.8 234.1 432.8 234.1 430.4C234.1 420.5 229.6 413.9 223.6 406.7C210.4 390.8 205 372.8 222.7 357.5C228.4 352.4 235.3 349.1 235.3 340.4C235.6 329 223 321.5 218.8 312.2C211 293.3 228.7 280.4 235 264.2C239.2 253.1 236.8 245 231.7 234.5C223.3 217.1 220.3 200.3 231.7 183.5C243.7 166.1 266.8 161.6 285.7 170C288.1 170.9 289.9 167.6 287.8 166.7V166.7Z" fill="black"/>
</g>
</svg>
