<svg width="995" height="505" viewBox="0 0 995 505" fill="none" xmlns="http://www.w3.org/2000/svg">
<path d="M814.829 372.828C816.391 371.266 816.391 368.734 814.829 367.172L789.373 341.716C787.811 340.154 785.278 340.154 783.716 341.716C782.154 343.278 782.154 345.811 783.716 347.373L806.343 370L783.716 392.627C782.154 394.19 782.154 396.722 783.716 398.284C785.278 399.846 787.811 399.846 789.373 398.284L814.829 372.828ZM24.0001 374L812 374L812 366L24.0001 366L24.0001 374Z" fill="#2BBC8A"/>
<path d="M861.175 388H854.887V354.496H867.607C870.871 354.496 873.367 355.424 875.095 357.28C876.823 359.136 877.687 361.664 877.687 364.864C877.687 367.328 877.111 369.408 875.959 371.104C874.839 372.768 873.223 373.824 871.111 374.272L878.263 388H871.351L864.967 374.992H861.175V388ZM866.311 370.096C868.007 370.096 869.223 369.76 869.959 369.088C870.695 368.384 871.063 367.28 871.063 365.776V363.952C871.063 362.448 870.695 361.36 869.959 360.688C869.223 359.984 868.007 359.632 866.311 359.632H861.175V370.096H866.311ZM883.572 388V383.296H891.108V359.2H883.572V354.496H904.884V359.2H897.348V383.296H904.884V388H883.572ZM922.625 388.576C919.745 388.576 917.281 388.08 915.233 387.088C913.217 386.096 911.569 384.784 910.289 383.152L914.081 379.216C915.329 380.656 916.673 381.728 918.113 382.432C919.585 383.104 921.153 383.44 922.817 383.44C924.737 383.44 926.209 383.008 927.233 382.144C928.257 381.28 928.769 380.032 928.769 378.4C928.769 377.056 928.385 376.048 927.617 375.376C926.849 374.672 925.553 374.176 923.729 373.888L920.177 373.312C917.073 372.768 914.865 371.648 913.553 369.952C912.241 368.224 911.585 366.192 911.585 363.856C911.585 360.656 912.625 358.208 914.705 356.512C916.785 354.784 919.665 353.92 923.345 353.92C925.969 353.92 928.225 354.336 930.113 355.168C932.033 356 933.569 357.136 934.721 358.576L931.025 362.512C930.129 361.456 929.057 360.624 927.809 360.016C926.561 359.376 925.089 359.056 923.393 359.056C919.745 359.056 917.921 360.56 917.921 363.568C917.921 364.848 918.305 365.824 919.073 366.496C919.841 367.168 921.153 367.664 923.009 367.984L926.513 368.608C929.425 369.152 931.585 370.224 932.993 371.824C934.401 373.424 935.105 375.472 935.105 377.968C935.105 379.536 934.833 380.976 934.289 382.288C933.745 383.568 932.945 384.688 931.889 385.648C930.833 386.576 929.521 387.296 927.953 387.808C926.417 388.32 924.641 388.576 922.625 388.576ZM950.687 373.312L947.183 377.92V388H940.895V354.496H947.183V369.568H947.471L951.359 364L958.415 354.496H965.519L955.007 368.608L965.999 388H958.895L950.687 373.312ZM980.188 388.576C977.308 388.576 974.844 388.08 972.796 387.088C970.78 386.096 969.132 384.784 967.852 383.152L971.644 379.216C972.892 380.656 974.236 381.728 975.676 382.432C977.148 383.104 978.716 383.44 980.38 383.44C982.3 383.44 983.772 383.008 984.796 382.144C985.82 381.28 986.332 380.032 986.332 378.4C986.332 377.056 985.948 376.048 985.18 375.376C984.412 374.672 983.116 374.176 981.292 373.888L977.74 373.312C974.636 372.768 972.428 371.648 971.116 369.952C969.804 368.224 969.148 366.192 969.148 363.856C969.148 360.656 970.188 358.208 972.268 356.512C974.348 354.784 977.228 353.92 980.908 353.92C983.532 353.92 985.788 354.336 987.676 355.168C989.596 356 991.132 357.136 992.284 358.576L988.588 362.512C987.692 361.456 986.62 360.624 985.372 360.016C984.124 359.376 982.652 359.056 980.956 359.056C977.308 359.056 975.484 360.56 975.484 363.568C975.484 364.848 975.868 365.824 976.636 366.496C977.404 367.168 978.716 367.664 980.572 367.984L984.076 368.608C986.988 369.152 989.148 370.224 990.556 371.824C991.964 373.424 992.668 375.472 992.668 377.968C992.668 379.536 992.396 380.976 991.852 382.288C991.308 383.568 990.508 384.688 989.452 385.648C988.396 386.576 987.084 387.296 985.516 387.808C983.98 388.32 982.204 388.576 980.188 388.576Z" fill="#2BBC8A"/>
<path d="M126.04 408.32H128.6V418.176H128.728C129.795 416.128 131.491 415.104 133.816 415.104C135.843 415.104 137.421 415.861 138.552 417.376C139.704 418.891 140.28 421.013 140.28 423.744C140.28 426.475 139.704 428.597 138.552 430.112C137.421 431.627 135.843 432.384 133.816 432.384C131.491 432.384 129.795 431.36 128.728 429.312H128.6V432H126.04V408.32ZM132.824 430.112C134.317 430.112 135.469 429.664 136.28 428.768C137.112 427.851 137.528 426.645 137.528 425.152V422.336C137.528 420.843 137.112 419.648 136.28 418.752C135.469 417.835 134.317 417.376 132.824 417.376C132.248 417.376 131.704 417.451 131.192 417.6C130.68 417.749 130.232 417.973 129.848 418.272C129.464 418.549 129.155 418.901 128.92 419.328C128.707 419.733 128.6 420.213 128.6 420.768V426.72C128.6 427.275 128.707 427.765 128.92 428.192C129.155 428.597 129.464 428.949 129.848 429.248C130.232 429.525 130.68 429.739 131.192 429.888C131.704 430.037 132.248 430.112 132.824 430.112ZM151.788 432.384C150.636 432.384 149.59 432.181 148.652 431.776C147.734 431.371 146.945 430.795 146.284 430.048C145.644 429.28 145.153 428.373 144.812 427.328C144.47 426.261 144.299 425.067 144.299 423.744C144.299 422.443 144.47 421.259 144.812 420.192C145.153 419.125 145.644 418.219 146.284 417.472C146.945 416.704 147.734 416.117 148.652 415.712C149.59 415.307 150.636 415.104 151.788 415.104C152.94 415.104 153.974 415.307 154.892 415.712C155.83 416.117 156.62 416.704 157.26 417.472C157.921 418.219 158.422 419.125 158.764 420.192C159.105 421.259 159.276 422.443 159.276 423.744C159.276 425.067 159.105 426.261 158.764 427.328C158.422 428.373 157.921 429.28 157.26 430.048C156.62 430.795 155.83 431.371 154.892 431.776C153.974 432.181 152.94 432.384 151.788 432.384ZM151.788 430.176C153.217 430.176 154.369 429.749 155.244 428.896C156.118 428.043 156.556 426.72 156.556 424.928V422.56C156.556 420.768 156.118 419.445 155.244 418.592C154.369 417.739 153.217 417.312 151.788 417.312C150.358 417.312 149.206 417.739 148.332 418.592C147.457 419.445 147.02 420.768 147.02 422.56V424.928C147.02 426.72 147.457 428.043 148.332 428.896C149.206 429.749 150.358 430.176 151.788 430.176ZM164.511 432V415.488H167.071V418.176H167.199C167.37 417.771 167.583 417.387 167.839 417.024C168.095 416.64 168.404 416.309 168.767 416.032C169.151 415.755 169.599 415.531 170.111 415.36C170.623 415.189 171.22 415.104 171.903 415.104C173.631 415.104 175.018 415.659 176.063 416.768C177.108 417.856 177.631 419.403 177.631 421.408V432H175.071V421.856C175.071 420.341 174.74 419.221 174.079 418.496C173.418 417.749 172.447 417.376 171.167 417.376C170.655 417.376 170.154 417.44 169.663 417.568C169.172 417.696 168.735 417.888 168.351 418.144C167.967 418.4 167.658 418.731 167.423 419.136C167.188 419.541 167.071 420.011 167.071 420.544V432H164.511ZM194.163 429.312H194.035C192.968 431.36 191.272 432.384 188.947 432.384C186.92 432.384 185.331 431.627 184.179 430.112C183.048 428.597 182.483 426.475 182.483 423.744C182.483 421.013 183.048 418.891 184.179 417.376C185.331 415.861 186.92 415.104 188.947 415.104C191.272 415.104 192.968 416.128 194.035 418.176H194.163V408.32H196.722V432H194.163V429.312ZM189.939 430.112C190.515 430.112 191.059 430.037 191.571 429.888C192.083 429.739 192.531 429.525 192.915 429.248C193.299 428.949 193.597 428.597 193.811 428.192C194.045 427.765 194.163 427.275 194.163 426.72V420.768C194.163 420.213 194.045 419.733 193.811 419.328C193.597 418.901 193.299 418.549 192.915 418.272C192.531 417.973 192.083 417.749 191.571 417.6C191.059 417.451 190.515 417.376 189.939 417.376C188.445 417.376 187.283 417.835 186.451 418.752C185.64 419.648 185.235 420.843 185.235 422.336V425.152C185.235 426.645 185.64 427.851 186.451 428.768C187.283 429.664 188.445 430.112 189.939 430.112ZM209.542 432.384C207.814 432.384 206.321 432.096 205.062 431.52C203.825 430.923 202.769 430.133 201.894 429.152L203.622 427.648C204.411 428.48 205.275 429.12 206.214 429.568C207.153 430.016 208.283 430.24 209.606 430.24C210.886 430.24 211.931 430.016 212.742 429.568C213.574 429.099 213.99 428.373 213.99 427.392C213.99 426.965 213.905 426.613 213.734 426.336C213.585 426.037 213.371 425.803 213.094 425.632C212.817 425.461 212.507 425.333 212.166 425.248C211.825 425.141 211.462 425.056 211.078 424.992L208.486 424.608C207.91 424.523 207.281 424.405 206.598 424.256C205.937 424.107 205.329 423.872 204.774 423.552C204.219 423.211 203.75 422.763 203.366 422.208C203.003 421.653 202.822 420.928 202.822 420.032C202.822 419.2 202.982 418.485 203.302 417.888C203.643 417.269 204.113 416.757 204.71 416.352C205.307 415.925 206.011 415.616 206.822 415.424C207.633 415.211 208.518 415.104 209.478 415.104C210.971 415.104 212.262 415.339 213.35 415.808C214.459 416.277 215.409 416.928 216.198 417.76L214.534 419.328C214.342 419.093 214.097 418.859 213.798 418.624C213.521 418.368 213.169 418.144 212.742 417.952C212.337 417.739 211.857 417.568 211.302 417.44C210.747 417.312 210.107 417.248 209.382 417.248C208.081 417.248 207.078 417.472 206.374 417.92C205.691 418.368 205.35 419.019 205.35 419.872C205.35 420.299 205.425 420.661 205.574 420.96C205.745 421.237 205.969 421.461 206.246 421.632C206.523 421.803 206.833 421.941 207.174 422.048C207.537 422.133 207.899 422.208 208.262 422.272L210.854 422.656C211.451 422.741 212.081 422.859 212.742 423.008C213.403 423.157 214.011 423.403 214.566 423.744C215.121 424.064 215.579 424.501 215.942 425.056C216.326 425.611 216.518 426.336 216.518 427.232C216.518 428.875 215.878 430.144 214.598 431.04C213.339 431.936 211.654 432.384 209.542 432.384Z" fill="#2BBC8A"/>
<path d="M27.04 430.32H29.6V440.176H29.728C30.7947 438.128 32.4907 437.104 34.816 437.104C36.8427 437.104 38.4213 437.861 39.552 439.376C40.704 440.891 41.28 443.013 41.28 445.744C41.28 448.475 40.704 450.597 39.552 452.112C38.4213 453.627 36.8427 454.384 34.816 454.384C32.4907 454.384 30.7947 453.36 29.728 451.312H29.6V454H27.04V430.32ZM33.824 452.112C35.3173 452.112 36.4693 451.664 37.28 450.768C38.112 449.851 38.528 448.645 38.528 447.152V444.336C38.528 442.843 38.112 441.648 37.28 440.752C36.4693 439.835 35.3173 439.376 33.824 439.376C33.248 439.376 32.704 439.451 32.192 439.6C31.68 439.749 31.232 439.973 30.848 440.272C30.464 440.549 30.1547 440.901 29.92 441.328C29.7067 441.733 29.6 442.213 29.6 442.768V448.72C29.6 449.275 29.7067 449.765 29.92 450.192C30.1547 450.597 30.464 450.949 30.848 451.248C31.232 451.525 31.68 451.739 32.192 451.888C32.704 452.037 33.248 452.112 33.824 452.112ZM59.0275 454C58.0248 454 57.3102 453.744 56.8835 453.232C56.4568 452.72 56.1902 452.08 56.0835 451.312H55.9235C55.5608 452.272 54.9742 453.029 54.1635 453.584C53.3742 454.117 52.3075 454.384 50.9635 454.384C49.2355 454.384 47.8595 453.936 46.8355 453.04C45.8115 452.144 45.2995 450.917 45.2995 449.36C45.2995 447.824 45.8542 446.64 46.9635 445.808C48.0942 444.976 49.9075 444.56 52.4035 444.56H55.9235V442.928C55.9235 441.712 55.5822 440.805 54.8995 440.208C54.2168 439.589 53.2462 439.28 51.9875 439.28C50.8782 439.28 49.9715 439.504 49.2675 439.952C48.5635 440.379 47.9982 440.965 47.5715 441.712L45.8435 440.432C46.0568 440.005 46.3448 439.589 46.7075 439.184C47.0702 438.779 47.5182 438.427 48.0515 438.128C48.5848 437.808 49.1928 437.563 49.8755 437.392C50.5582 437.2 51.3155 437.104 52.1475 437.104C54.0888 437.104 55.6248 437.595 56.7555 438.576C57.9075 439.557 58.4835 440.923 58.4835 442.672V451.76H60.7875V454H59.0275ZM51.4115 452.24C52.0728 452.24 52.6702 452.165 53.2035 452.016C53.7582 451.845 54.2382 451.632 54.6435 451.376C55.0488 451.099 55.3582 450.779 55.5715 450.416C55.8062 450.032 55.9235 449.627 55.9235 449.2V446.48H52.4035C50.8675 446.48 49.7475 446.693 49.0435 447.12C48.3395 447.547 47.9875 448.165 47.9875 448.976V449.648C47.9875 450.501 48.2862 451.152 48.8835 451.6C49.5022 452.027 50.3448 452.24 51.4115 452.24ZM65.511 454V437.488H68.071V440.176H68.199C68.3697 439.771 68.583 439.387 68.839 439.024C69.095 438.64 69.4043 438.309 69.767 438.032C70.151 437.755 70.599 437.531 71.111 437.36C71.623 437.189 72.2203 437.104 72.903 437.104C74.631 437.104 76.0177 437.659 77.063 438.768C78.1083 439.856 78.631 441.403 78.631 443.408V454H76.071V443.856C76.071 442.341 75.7403 441.221 75.079 440.496C74.4177 439.749 73.447 439.376 72.167 439.376C71.655 439.376 71.1537 439.44 70.663 439.568C70.1723 439.696 69.735 439.888 69.351 440.144C68.967 440.4 68.6577 440.731 68.423 441.136C68.1883 441.541 68.071 442.011 68.071 442.544V454H65.511ZM84.9225 430.32H87.4825V445.264H87.6105L90.4905 442.544L95.9945 437.488H99.1305L92.2825 443.952L99.9305 454H96.7625L90.3305 445.424L87.4825 448.016V454H84.9225V430.32ZM39.84 496C38.8373 496 38.1227 495.744 37.696 495.232C37.2693 494.72 37.0027 494.08 36.896 493.312H36.736C36.3733 494.272 35.7867 495.029 34.976 495.584C34.1867 496.117 33.12 496.384 31.776 496.384C30.048 496.384 28.672 495.936 27.648 495.04C26.624 494.144 26.112 492.917 26.112 491.36C26.112 489.824 26.6667 488.64 27.776 487.808C28.9067 486.976 30.72 486.56 33.216 486.56H36.736V484.928C36.736 483.712 36.3947 482.805 35.712 482.208C35.0293 481.589 34.0587 481.28 32.8 481.28C31.6907 481.28 30.784 481.504 30.08 481.952C29.376 482.379 28.8107 482.965 28.384 483.712L26.656 482.432C26.8693 482.005 27.1573 481.589 27.52 481.184C27.8827 480.779 28.3307 480.427 28.864 480.128C29.3973 479.808 30.0053 479.563 30.688 479.392C31.3707 479.2 32.128 479.104 32.96 479.104C34.9013 479.104 36.4373 479.595 37.568 480.576C38.72 481.557 39.296 482.923 39.296 484.672V493.76H41.6V496H39.84ZM32.224 494.24C32.8853 494.24 33.4827 494.165 34.016 494.016C34.5707 493.845 35.0507 493.632 35.456 493.376C35.8613 493.099 36.1707 492.779 36.384 492.416C36.6187 492.032 36.736 491.627 36.736 491.2V488.48H33.216C31.68 488.48 30.56 488.693 29.856 489.12C29.152 489.547 28.8 490.165 28.8 490.976V491.648C28.8 492.501 29.0987 493.152 29.696 493.6C30.3147 494.027 31.1573 494.24 32.224 494.24ZM53.3635 496.384C52.1688 496.384 51.1022 496.181 50.1635 495.776C49.2462 495.349 48.4675 494.763 47.8275 494.016C47.1875 493.269 46.6968 492.363 46.3555 491.296C46.0355 490.229 45.8755 489.045 45.8755 487.744C45.8755 486.443 46.0462 485.259 46.3875 484.192C46.7288 483.125 47.2195 482.219 47.8595 481.472C48.4995 480.704 49.2782 480.117 50.1955 479.712C51.1128 479.307 52.1582 479.104 53.3315 479.104C54.9315 479.104 56.2328 479.456 57.2355 480.16C58.2382 480.864 58.9742 481.781 59.4435 482.912L57.3955 484C57.0968 483.147 56.5955 482.485 55.8915 482.016C55.2088 481.547 54.3555 481.312 53.3315 481.312C52.5848 481.312 51.9128 481.44 51.3155 481.696C50.7395 481.931 50.2488 482.272 49.8435 482.72C49.4382 483.168 49.1288 483.701 48.9155 484.32C48.7235 484.939 48.6275 485.611 48.6275 486.336V489.152C48.6275 489.877 48.7235 490.549 48.9155 491.168C49.1288 491.787 49.4382 492.32 49.8435 492.768C50.2488 493.216 50.7502 493.568 51.3475 493.824C51.9448 494.059 52.6275 494.176 53.3955 494.176C54.5048 494.176 55.4222 493.92 56.1475 493.408C56.8728 492.896 57.4488 492.192 57.8755 491.296L59.6995 492.544C59.2088 493.653 58.4408 494.571 57.3955 495.296C56.3715 496.021 55.0275 496.384 53.3635 496.384ZM72.551 496.384C71.3563 496.384 70.2897 496.181 69.351 495.776C68.4337 495.349 67.655 494.763 67.015 494.016C66.375 493.269 65.8843 492.363 65.543 491.296C65.223 490.229 65.063 489.045 65.063 487.744C65.063 486.443 65.2337 485.259 65.575 484.192C65.9163 483.125 66.407 482.219 67.047 481.472C67.687 480.704 68.4657 480.117 69.383 479.712C70.3003 479.307 71.3457 479.104 72.519 479.104C74.119 479.104 75.4203 479.456 76.423 480.16C77.4257 480.864 78.1617 481.781 78.631 482.912L76.583 484C76.2843 483.147 75.783 482.485 75.079 482.016C74.3963 481.547 73.543 481.312 72.519 481.312C71.7723 481.312 71.1003 481.44 70.503 481.696C69.927 481.931 69.4363 482.272 69.031 482.72C68.6257 483.168 68.3163 483.701 68.103 484.32C67.911 484.939 67.815 485.611 67.815 486.336V489.152C67.815 489.877 67.911 490.549 68.103 491.168C68.3163 491.787 68.6257 492.32 69.031 492.768C69.4363 493.216 69.9377 493.568 70.535 493.824C71.1323 494.059 71.815 494.176 72.583 494.176C73.6923 494.176 74.6097 493.92 75.335 493.408C76.0603 492.896 76.6363 492.192 77.063 491.296L78.887 492.544C78.3963 493.653 77.6283 494.571 76.583 495.296C75.559 496.021 74.215 496.384 72.551 496.384ZM91.1625 496.384C90.0105 496.384 88.9652 496.181 88.0265 495.776C87.1092 495.371 86.3198 494.795 85.6585 494.048C85.0185 493.28 84.5278 492.373 84.1865 491.328C83.8452 490.261 83.6745 489.067 83.6745 487.744C83.6745 486.443 83.8452 485.259 84.1865 484.192C84.5278 483.125 85.0185 482.219 85.6585 481.472C86.3198 480.704 87.1092 480.117 88.0265 479.712C88.9652 479.307 90.0105 479.104 91.1625 479.104C92.3145 479.104 93.3492 479.307 94.2665 479.712C95.2052 480.117 95.9945 480.704 96.6345 481.472C97.2958 482.219 97.7972 483.125 98.1385 484.192C98.4798 485.259 98.6505 486.443 98.6505 487.744C98.6505 489.067 98.4798 490.261 98.1385 491.328C97.7972 492.373 97.2958 493.28 96.6345 494.048C95.9945 494.795 95.2052 495.371 94.2665 495.776C93.3492 496.181 92.3145 496.384 91.1625 496.384ZM91.1625 494.176C92.5918 494.176 93.7438 493.749 94.6185 492.896C95.4932 492.043 95.9305 490.72 95.9305 488.928V486.56C95.9305 484.768 95.4932 483.445 94.6185 482.592C93.7438 481.739 92.5918 481.312 91.1625 481.312C89.7332 481.312 88.5812 481.739 87.7065 482.592C86.8318 483.445 86.3945 484.768 86.3945 486.56V488.928C86.3945 490.72 86.8318 492.043 87.7065 492.896C88.5812 493.749 89.7332 494.176 91.1625 494.176ZM114.254 493.312H114.126C113.955 493.717 113.742 494.112 113.486 494.496C113.23 494.859 112.91 495.179 112.526 495.456C112.163 495.733 111.726 495.957 111.214 496.128C110.702 496.299 110.105 496.384 109.422 496.384C107.694 496.384 106.307 495.84 105.262 494.752C104.217 493.643 103.694 492.085 103.694 490.08V479.488H106.254V489.632C106.254 491.147 106.585 492.277 107.246 493.024C107.907 493.749 108.878 494.112 110.158 494.112C110.67 494.112 111.171 494.048 111.662 493.92C112.153 493.792 112.59 493.6 112.974 493.344C113.358 493.088 113.667 492.768 113.902 492.384C114.137 491.979 114.254 491.499 114.254 490.944V479.488H116.814V496H114.254V493.312ZM123.074 496V479.488H125.634V482.176H125.762C125.932 481.771 126.146 481.387 126.402 481.024C126.658 480.64 126.967 480.309 127.33 480.032C127.714 479.755 128.162 479.531 128.674 479.36C129.186 479.189 129.783 479.104 130.466 479.104C132.194 479.104 133.58 479.659 134.626 480.768C135.671 481.856 136.194 483.403 136.194 485.408V496H133.634V485.856C133.634 484.341 133.303 483.221 132.642 482.496C131.98 481.749 131.01 481.376 129.73 481.376C129.218 481.376 128.716 481.44 128.226 481.568C127.735 481.696 127.298 481.888 126.914 482.144C126.53 482.4 126.22 482.731 125.986 483.136C125.751 483.541 125.634 484.011 125.634 484.544V496H123.074ZM149.525 496C148.266 496 147.338 495.648 146.741 494.944C146.165 494.24 145.877 493.333 145.877 492.224V481.664H140.373V479.488H144.469C145.024 479.488 145.408 479.381 145.621 479.168C145.856 478.933 145.973 478.539 145.973 477.984V473.664H148.437V479.488H155.957V481.664H148.437V493.824H155.957V496H149.525Z" fill="#2BBC8A"/>
<path d="M260.56 457.8V450.728H260.304L255.6 462.216L250.896 450.728H250.64V457.8V469H248.176V446.664H251.632L255.568 456.52H255.76L259.696 446.664H263.024V469H260.56V457.8ZM275.812 448.84C275.065 448.84 274.542 448.691 274.244 448.392C273.945 448.072 273.796 447.677 273.796 447.208V446.696C273.796 446.227 273.945 445.843 274.244 445.544C274.542 445.224 275.065 445.064 275.812 445.064C276.558 445.064 277.081 445.224 277.38 445.544C277.678 445.843 277.828 446.227 277.828 446.696V447.208C277.828 447.677 277.678 448.072 277.38 448.392C277.081 448.691 276.558 448.84 275.812 448.84ZM268.58 466.824H274.532V454.664H268.58V452.488H277.092V466.824H282.66V469H268.58V466.824ZM287.511 469V452.488H290.071V455.176H290.199C290.37 454.771 290.583 454.387 290.839 454.024C291.095 453.64 291.404 453.309 291.767 453.032C292.151 452.755 292.599 452.531 293.111 452.36C293.623 452.189 294.22 452.104 294.903 452.104C296.631 452.104 298.018 452.659 299.063 453.768C300.108 454.856 300.631 456.403 300.631 458.408V469H298.071V458.856C298.071 457.341 297.74 456.221 297.079 455.496C296.418 454.749 295.447 454.376 294.167 454.376C293.655 454.376 293.154 454.44 292.663 454.568C292.172 454.696 291.735 454.888 291.351 455.144C290.967 455.4 290.658 455.731 290.423 456.136C290.188 456.541 290.071 457.011 290.071 457.544V469H287.511ZM313.963 469C312.704 469 311.776 468.648 311.179 467.944C310.603 467.24 310.315 466.333 310.315 465.224V454.664H304.811V452.488H308.907C309.461 452.488 309.845 452.381 310.059 452.168C310.293 451.933 310.411 451.539 310.411 450.984V446.664H312.875V452.488H320.395V454.664H312.875V466.824H320.395V469H313.963ZM332.35 469.384C331.198 469.384 330.153 469.181 329.214 468.776C328.297 468.371 327.507 467.795 326.846 467.048C326.206 466.28 325.715 465.373 325.374 464.328C325.033 463.261 324.862 462.067 324.862 460.744C324.862 459.443 325.033 458.259 325.374 457.192C325.715 456.125 326.206 455.219 326.846 454.472C327.507 453.704 328.297 453.117 329.214 452.712C330.153 452.307 331.198 452.104 332.35 452.104C333.502 452.104 334.537 452.307 335.454 452.712C336.393 453.117 337.182 453.704 337.822 454.472C338.483 455.219 338.985 456.125 339.326 457.192C339.667 458.259 339.838 459.443 339.838 460.744C339.838 462.067 339.667 463.261 339.326 464.328C338.985 465.373 338.483 466.28 337.822 467.048C337.182 467.795 336.393 468.371 335.454 468.776C334.537 469.181 333.502 469.384 332.35 469.384ZM332.35 467.176C333.779 467.176 334.931 466.749 335.806 465.896C336.681 465.043 337.118 463.72 337.118 461.928V459.56C337.118 457.768 336.681 456.445 335.806 455.592C334.931 454.739 333.779 454.312 332.35 454.312C330.921 454.312 329.769 454.739 328.894 455.592C328.019 456.445 327.582 457.768 327.582 459.56V461.928C327.582 463.72 328.019 465.043 328.894 465.896C329.769 466.749 330.921 467.176 332.35 467.176ZM351.73 469.384C350.002 469.384 348.508 469.096 347.25 468.52C346.012 467.923 344.956 467.133 344.082 466.152L345.81 464.648C346.599 465.48 347.463 466.12 348.402 466.568C349.34 467.016 350.471 467.24 351.794 467.24C353.074 467.24 354.119 467.016 354.93 466.568C355.762 466.099 356.178 465.373 356.178 464.392C356.178 463.965 356.092 463.613 355.922 463.336C355.772 463.037 355.559 462.803 355.282 462.632C355.004 462.461 354.695 462.333 354.354 462.248C354.012 462.141 353.65 462.056 353.266 461.992L350.674 461.608C350.098 461.523 349.468 461.405 348.786 461.256C348.124 461.107 347.516 460.872 346.962 460.552C346.407 460.211 345.938 459.763 345.554 459.208C345.191 458.653 345.01 457.928 345.01 457.032C345.01 456.2 345.17 455.485 345.49 454.888C345.831 454.269 346.3 453.757 346.898 453.352C347.495 452.925 348.199 452.616 349.01 452.424C349.82 452.211 350.706 452.104 351.666 452.104C353.159 452.104 354.45 452.339 355.538 452.808C356.647 453.277 357.596 453.928 358.385 454.76L356.722 456.328C356.53 456.093 356.284 455.859 355.986 455.624C355.708 455.368 355.356 455.144 354.93 454.952C354.524 454.739 354.044 454.568 353.49 454.44C352.935 454.312 352.295 454.248 351.57 454.248C350.268 454.248 349.266 454.472 348.562 454.92C347.879 455.368 347.538 456.019 347.538 456.872C347.538 457.299 347.612 457.661 347.762 457.96C347.932 458.237 348.156 458.461 348.434 458.632C348.711 458.803 349.02 458.941 349.362 459.048C349.724 459.133 350.087 459.208 350.45 459.272L353.042 459.656C353.639 459.741 354.268 459.859 354.93 460.008C355.591 460.157 356.199 460.403 356.754 460.744C357.308 461.064 357.767 461.501 358.13 462.056C358.514 462.611 358.706 463.336 358.706 464.232C358.706 465.875 358.066 467.144 356.786 468.04C355.527 468.936 353.842 469.384 351.73 469.384Z" fill="#2BBC8A"/>
<path d="M394.568 454H391.88V431.664H400.008C402.077 431.664 403.656 432.229 404.744 433.36C405.832 434.491 406.376 436.069 406.376 438.096C406.376 439.909 405.907 441.36 404.968 442.448C404.029 443.536 402.664 444.165 400.872 444.336L406.568 454H403.56L398.12 444.464H394.568V454ZM399.944 442.192C401.075 442.192 401.949 441.915 402.568 441.36C403.208 440.784 403.528 439.973 403.528 438.928V437.264C403.528 436.219 403.208 435.419 402.568 434.864C401.949 434.288 401.075 434 399.944 434H394.568V442.192H399.944ZM418.076 454.384C416.881 454.384 415.804 454.181 414.844 453.776C413.905 453.371 413.094 452.795 412.411 452.048C411.75 451.28 411.238 450.373 410.876 449.328C410.513 448.261 410.332 447.077 410.332 445.776C410.332 444.453 410.513 443.259 410.876 442.192C411.26 441.125 411.782 440.219 412.444 439.472C413.105 438.704 413.894 438.117 414.812 437.712C415.75 437.307 416.785 437.104 417.916 437.104C419.025 437.104 420.028 437.307 420.924 437.712C421.841 438.117 422.62 438.683 423.26 439.408C423.9 440.112 424.39 440.955 424.732 441.936C425.073 442.917 425.244 443.995 425.244 445.168V446.384H413.02V447.152C413.02 447.877 413.137 448.549 413.372 449.168C413.606 449.787 413.937 450.32 414.364 450.768C414.812 451.216 415.345 451.568 415.964 451.824C416.604 452.059 417.308 452.176 418.076 452.176C419.185 452.176 420.145 451.92 420.956 451.408C421.766 450.896 422.385 450.192 422.812 449.296L424.7 450.576C424.209 451.685 423.388 452.603 422.236 453.328C421.105 454.032 419.718 454.384 418.076 454.384ZM417.916 439.216C417.212 439.216 416.561 439.344 415.964 439.6C415.366 439.856 414.844 440.208 414.396 440.656C413.969 441.104 413.628 441.637 413.372 442.256C413.137 442.853 413.02 443.515 413.02 444.24V444.464H422.492V444.112C422.492 443.387 422.374 442.725 422.14 442.128C421.926 441.531 421.617 441.019 421.212 440.592C420.828 440.144 420.348 439.803 419.772 439.568C419.217 439.333 418.598 439.216 417.916 439.216ZM443.215 454C442.212 454 441.498 453.744 441.071 453.232C440.644 452.72 440.378 452.08 440.271 451.312H440.111C439.748 452.272 439.162 453.029 438.351 453.584C437.562 454.117 436.495 454.384 435.151 454.384C433.423 454.384 432.047 453.936 431.023 453.04C429.999 452.144 429.487 450.917 429.487 449.36C429.487 447.824 430.042 446.64 431.151 445.808C432.282 444.976 434.095 444.56 436.591 444.56H440.111V442.928C440.111 441.712 439.77 440.805 439.087 440.208C438.404 439.589 437.434 439.28 436.175 439.28C435.066 439.28 434.159 439.504 433.455 439.952C432.751 440.379 432.186 440.965 431.759 441.712L430.031 440.432C430.244 440.005 430.532 439.589 430.895 439.184C431.258 438.779 431.706 438.427 432.239 438.128C432.772 437.808 433.38 437.563 434.063 437.392C434.746 437.2 435.503 437.104 436.335 437.104C438.276 437.104 439.812 437.595 440.943 438.576C442.095 439.557 442.671 440.923 442.671 442.672V451.76H444.975V454H443.215ZM435.599 452.24C436.26 452.24 436.858 452.165 437.391 452.016C437.946 451.845 438.426 451.632 438.831 451.376C439.236 451.099 439.546 450.779 439.759 450.416C439.994 450.032 440.111 449.627 440.111 449.2V446.48H436.591C435.055 446.48 433.935 446.693 433.231 447.12C432.527 447.547 432.175 448.165 432.175 448.976V449.648C432.175 450.501 432.474 451.152 433.071 451.6C433.69 452.027 434.532 452.24 435.599 452.24ZM449.123 451.824H454.883V432.496H449.123V430.32H457.443V451.824H463.203V454H449.123V451.824ZM391.88 496V473.664H405.64V476H394.568V483.52H405.256V485.856H394.568V493.664H405.64V496H391.88ZM417.98 496.384C416.252 496.384 414.758 496.096 413.5 495.52C412.262 494.923 411.206 494.133 410.332 493.152L412.06 491.648C412.849 492.48 413.713 493.12 414.652 493.568C415.59 494.016 416.721 494.24 418.044 494.24C419.324 494.24 420.369 494.016 421.18 493.568C422.012 493.099 422.428 492.373 422.428 491.392C422.428 490.965 422.342 490.613 422.172 490.336C422.022 490.037 421.809 489.803 421.532 489.632C421.254 489.461 420.945 489.333 420.604 489.248C420.262 489.141 419.9 489.056 419.516 488.992L416.924 488.608C416.348 488.523 415.718 488.405 415.036 488.256C414.374 488.107 413.766 487.872 413.212 487.552C412.657 487.211 412.188 486.763 411.804 486.208C411.441 485.653 411.26 484.928 411.26 484.032C411.26 483.2 411.42 482.485 411.74 481.888C412.081 481.269 412.55 480.757 413.148 480.352C413.745 479.925 414.449 479.616 415.26 479.424C416.07 479.211 416.956 479.104 417.916 479.104C419.409 479.104 420.7 479.339 421.788 479.808C422.897 480.277 423.846 480.928 424.635 481.76L422.972 483.328C422.78 483.093 422.534 482.859 422.236 482.624C421.958 482.368 421.606 482.144 421.18 481.952C420.774 481.739 420.294 481.568 419.74 481.44C419.185 481.312 418.545 481.248 417.82 481.248C416.518 481.248 415.516 481.472 414.812 481.92C414.129 482.368 413.788 483.019 413.788 483.872C413.788 484.299 413.862 484.661 414.012 484.96C414.182 485.237 414.406 485.461 414.684 485.632C414.961 485.803 415.27 485.941 415.612 486.048C415.974 486.133 416.337 486.208 416.7 486.272L419.292 486.656C419.889 486.741 420.518 486.859 421.18 487.008C421.841 487.157 422.449 487.403 423.004 487.744C423.558 488.064 424.017 488.501 424.38 489.056C424.764 489.611 424.956 490.336 424.956 491.232C424.956 492.875 424.316 494.144 423.036 495.04C421.777 495.936 420.092 496.384 417.98 496.384ZM437.775 496C436.516 496 435.588 495.648 434.991 494.944C434.415 494.24 434.127 493.333 434.127 492.224V481.664H428.623V479.488H432.719C433.274 479.488 433.658 479.381 433.871 479.168C434.106 478.933 434.223 478.539 434.223 477.984V473.664H436.687V479.488H444.207V481.664H436.687V493.824H444.207V496H437.775ZM462.403 496C461.4 496 460.685 495.744 460.259 495.232C459.832 494.72 459.565 494.08 459.459 493.312H459.299C458.936 494.272 458.349 495.029 457.539 495.584C456.749 496.117 455.683 496.384 454.339 496.384C452.611 496.384 451.235 495.936 450.211 495.04C449.187 494.144 448.674 492.917 448.674 491.36C448.674 489.824 449.229 488.64 450.339 487.808C451.469 486.976 453.283 486.56 455.779 486.56H459.299V484.928C459.299 483.712 458.957 482.805 458.275 482.208C457.592 481.589 456.621 481.28 455.363 481.28C454.253 481.28 453.347 481.504 452.643 481.952C451.939 482.379 451.373 482.965 450.947 483.712L449.219 482.432C449.432 482.005 449.72 481.589 450.083 481.184C450.445 480.779 450.893 480.427 451.427 480.128C451.96 479.808 452.568 479.563 453.251 479.392C453.933 479.2 454.691 479.104 455.523 479.104C457.464 479.104 459 479.595 460.131 480.576C461.283 481.557 461.859 482.923 461.859 484.672V493.76H464.163V496H462.403ZM454.786 494.24C455.448 494.24 456.045 494.165 456.579 494.016C457.133 493.845 457.613 493.632 458.019 493.376C458.424 493.099 458.733 492.779 458.947 492.416C459.181 492.032 459.299 491.627 459.299 491.2V488.48H455.779C454.243 488.48 453.123 488.693 452.419 489.12C451.715 489.547 451.363 490.165 451.363 490.976V491.648C451.363 492.501 451.661 493.152 452.259 493.6C452.877 494.027 453.72 494.24 454.786 494.24ZM476.15 496C474.891 496 473.963 495.648 473.366 494.944C472.79 494.24 472.502 493.333 472.502 492.224V481.664H466.998V479.488H471.094C471.649 479.488 472.033 479.381 472.246 479.168C472.481 478.933 472.598 478.539 472.598 477.984V473.664H475.062V479.488H482.582V481.664H475.062V493.824H482.582V496H476.15ZM494.826 496.384C493.631 496.384 492.554 496.181 491.594 495.776C490.655 495.371 489.844 494.795 489.161 494.048C488.5 493.28 487.988 492.373 487.626 491.328C487.263 490.261 487.082 489.077 487.082 487.776C487.082 486.453 487.263 485.259 487.626 484.192C488.01 483.125 488.532 482.219 489.194 481.472C489.855 480.704 490.644 480.117 491.562 479.712C492.5 479.307 493.535 479.104 494.666 479.104C495.775 479.104 496.778 479.307 497.674 479.712C498.591 480.117 499.37 480.683 500.01 481.408C500.65 482.112 501.14 482.955 501.482 483.936C501.823 484.917 501.994 485.995 501.994 487.168V488.384H489.77V489.152C489.77 489.877 489.887 490.549 490.122 491.168C490.356 491.787 490.687 492.32 491.114 492.768C491.562 493.216 492.095 493.568 492.714 493.824C493.354 494.059 494.058 494.176 494.826 494.176C495.935 494.176 496.895 493.92 497.706 493.408C498.516 492.896 499.135 492.192 499.562 491.296L501.45 492.576C500.959 493.685 500.138 494.603 498.986 495.328C497.855 496.032 496.468 496.384 494.826 496.384ZM494.666 481.216C493.962 481.216 493.311 481.344 492.714 481.6C492.116 481.856 491.594 482.208 491.146 482.656C490.719 483.104 490.378 483.637 490.122 484.256C489.887 484.853 489.77 485.515 489.77 486.24V486.464H499.242V486.112C499.242 485.387 499.124 484.725 498.89 484.128C498.676 483.531 498.367 483.019 497.962 482.592C497.578 482.144 497.098 481.803 496.522 481.568C495.967 481.333 495.348 481.216 494.666 481.216Z" fill="#2BBC8A"/>
<path d="M625.56 442.8V435.728H625.304L620.6 447.216L615.896 435.728H615.64V442.8V454H613.176V431.664H616.632L620.568 441.52H620.76L624.696 431.664H628.024V454H625.56V442.8ZM639.788 454.384C638.636 454.384 637.59 454.181 636.652 453.776C635.734 453.371 634.945 452.795 634.284 452.048C633.644 451.28 633.153 450.373 632.812 449.328C632.47 448.261 632.299 447.067 632.299 445.744C632.299 444.443 632.47 443.259 632.812 442.192C633.153 441.125 633.644 440.219 634.284 439.472C634.945 438.704 635.734 438.117 636.652 437.712C637.59 437.307 638.636 437.104 639.788 437.104C640.94 437.104 641.974 437.307 642.892 437.712C643.83 438.117 644.62 438.704 645.26 439.472C645.921 440.219 646.422 441.125 646.764 442.192C647.105 443.259 647.276 444.443 647.276 445.744C647.276 447.067 647.105 448.261 646.764 449.328C646.422 450.373 645.921 451.28 645.26 452.048C644.62 452.795 643.83 453.371 642.892 453.776C641.974 454.181 640.94 454.384 639.788 454.384ZM639.788 452.176C641.217 452.176 642.369 451.749 643.244 450.896C644.118 450.043 644.556 448.72 644.556 446.928V444.56C644.556 442.768 644.118 441.445 643.244 440.592C642.369 439.739 641.217 439.312 639.788 439.312C638.358 439.312 637.206 439.739 636.332 440.592C635.457 441.445 635.02 442.768 635.02 444.56V446.928C635.02 448.72 635.457 450.043 636.332 450.896C637.206 451.749 638.358 452.176 639.788 452.176ZM658.975 454.384C657.823 454.384 656.778 454.181 655.839 453.776C654.922 453.371 654.132 452.795 653.471 452.048C652.831 451.28 652.34 450.373 651.999 449.328C651.658 448.261 651.487 447.067 651.487 445.744C651.487 444.443 651.658 443.259 651.999 442.192C652.34 441.125 652.831 440.219 653.471 439.472C654.132 438.704 654.922 438.117 655.839 437.712C656.778 437.307 657.823 437.104 658.975 437.104C660.127 437.104 661.162 437.307 662.079 437.712C663.018 438.117 663.807 438.704 664.447 439.472C665.108 440.219 665.61 441.125 665.951 442.192C666.292 443.259 666.463 444.443 666.463 445.744C666.463 447.067 666.292 448.261 665.951 449.328C665.61 450.373 665.108 451.28 664.447 452.048C663.807 452.795 663.018 453.371 662.079 453.776C661.162 454.181 660.127 454.384 658.975 454.384ZM658.975 452.176C660.404 452.176 661.556 451.749 662.431 450.896C663.306 450.043 663.743 448.72 663.743 446.928V444.56C663.743 442.768 663.306 441.445 662.431 440.592C661.556 439.739 660.404 439.312 658.975 439.312C657.546 439.312 656.394 439.739 655.519 440.592C654.644 441.445 654.207 442.768 654.207 444.56V446.928C654.207 448.72 654.644 450.043 655.519 450.896C656.394 451.749 657.546 452.176 658.975 452.176ZM671.699 454V437.488H674.259V440.176H674.387C674.557 439.771 674.771 439.387 675.027 439.024C675.283 438.64 675.592 438.309 675.955 438.032C676.339 437.755 676.787 437.531 677.299 437.36C677.811 437.189 678.408 437.104 679.091 437.104C680.819 437.104 682.205 437.659 683.251 438.768C684.296 439.856 684.819 441.403 684.819 443.408V454H682.259V443.856C682.259 442.341 681.928 441.221 681.267 440.496C680.605 439.749 679.635 439.376 678.355 439.376C677.843 439.376 677.341 439.44 676.851 439.568C676.36 439.696 675.923 439.888 675.539 440.144C675.155 440.4 674.845 440.731 674.611 441.136C674.376 441.541 674.259 442.011 674.259 442.544V454H671.699ZM697.542 454.384C695.814 454.384 694.321 454.096 693.062 453.52C691.825 452.923 690.769 452.133 689.894 451.152L691.622 449.648C692.411 450.48 693.275 451.12 694.214 451.568C695.153 452.016 696.283 452.24 697.606 452.24C698.886 452.24 699.931 452.016 700.742 451.568C701.574 451.099 701.99 450.373 701.99 449.392C701.99 448.965 701.905 448.613 701.734 448.336C701.585 448.037 701.371 447.803 701.094 447.632C700.817 447.461 700.507 447.333 700.166 447.248C699.825 447.141 699.462 447.056 699.078 446.992L696.486 446.608C695.91 446.523 695.281 446.405 694.598 446.256C693.937 446.107 693.329 445.872 692.774 445.552C692.219 445.211 691.75 444.763 691.366 444.208C691.003 443.653 690.822 442.928 690.822 442.032C690.822 441.2 690.982 440.485 691.302 439.888C691.643 439.269 692.113 438.757 692.71 438.352C693.307 437.925 694.011 437.616 694.822 437.424C695.633 437.211 696.518 437.104 697.478 437.104C698.971 437.104 700.262 437.339 701.35 437.808C702.459 438.277 703.409 438.928 704.198 439.76L702.534 441.328C702.342 441.093 702.097 440.859 701.798 440.624C701.521 440.368 701.169 440.144 700.742 439.952C700.337 439.739 699.857 439.568 699.302 439.44C698.747 439.312 698.107 439.248 697.382 439.248C696.081 439.248 695.078 439.472 694.374 439.92C693.691 440.368 693.35 441.019 693.35 441.872C693.35 442.299 693.425 442.661 693.574 442.96C693.745 443.237 693.969 443.461 694.246 443.632C694.523 443.803 694.833 443.941 695.174 444.048C695.537 444.133 695.899 444.208 696.262 444.272L698.854 444.656C699.451 444.741 700.081 444.859 700.742 445.008C701.403 445.157 702.011 445.403 702.566 445.744C703.121 446.064 703.579 446.501 703.942 447.056C704.326 447.611 704.518 448.336 704.518 449.232C704.518 450.875 703.878 452.144 702.598 453.04C701.339 453.936 699.654 454.384 697.542 454.384ZM710.074 430.32H712.634V440.176H712.762C712.932 439.771 713.146 439.387 713.402 439.024C713.658 438.64 713.967 438.309 714.33 438.032C714.714 437.755 715.162 437.531 715.674 437.36C716.186 437.189 716.783 437.104 717.466 437.104C719.194 437.104 720.58 437.659 721.626 438.768C722.671 439.856 723.194 441.403 723.194 443.408V454H720.634V443.856C720.634 442.341 720.303 441.221 719.642 440.496C718.98 439.749 718.01 439.376 716.73 439.376C716.218 439.376 715.716 439.44 715.226 439.568C714.735 439.696 714.298 439.888 713.914 440.144C713.53 440.4 713.22 440.731 712.986 441.136C712.751 441.541 712.634 442.011 712.634 442.544V454H710.074V430.32ZM735.725 454.384C734.573 454.384 733.528 454.181 732.589 453.776C731.672 453.371 730.882 452.795 730.221 452.048C729.581 451.28 729.09 450.373 728.749 449.328C728.408 448.261 728.237 447.067 728.237 445.744C728.237 444.443 728.408 443.259 728.749 442.192C729.09 441.125 729.581 440.219 730.221 439.472C730.882 438.704 731.672 438.117 732.589 437.712C733.528 437.307 734.573 437.104 735.725 437.104C736.877 437.104 737.912 437.307 738.829 437.712C739.768 438.117 740.557 438.704 741.197 439.472C741.858 440.219 742.36 441.125 742.701 442.192C743.042 443.259 743.213 444.443 743.213 445.744C743.213 447.067 743.042 448.261 742.701 449.328C742.36 450.373 741.858 451.28 741.197 452.048C740.557 452.795 739.768 453.371 738.829 453.776C737.912 454.181 736.877 454.384 735.725 454.384ZM735.725 452.176C737.154 452.176 738.306 451.749 739.181 450.896C740.056 450.043 740.493 448.72 740.493 446.928V444.56C740.493 442.768 740.056 441.445 739.181 440.592C738.306 439.739 737.154 439.312 735.725 439.312C734.296 439.312 733.144 439.739 732.269 440.592C731.394 441.445 730.957 442.768 730.957 444.56V446.928C730.957 448.72 731.394 450.043 732.269 450.896C733.144 451.749 734.296 452.176 735.725 452.176ZM755.713 454C754.454 454 753.526 453.648 752.929 452.944C752.353 452.24 752.065 451.333 752.065 450.224V439.664H746.561V437.488H750.657C751.211 437.488 751.595 437.381 751.809 437.168C752.043 436.933 752.161 436.539 752.161 435.984V431.664H754.625V437.488H762.145V439.664H754.625V451.824H762.145V454H755.713ZM774.292 454.384C772.564 454.384 771.071 454.096 769.812 453.52C768.575 452.923 767.519 452.133 766.644 451.152L768.372 449.648C769.161 450.48 770.025 451.12 770.964 451.568C771.903 452.016 773.033 452.24 774.356 452.24C775.636 452.24 776.681 452.016 777.492 451.568C778.324 451.099 778.74 450.373 778.74 449.392C778.74 448.965 778.655 448.613 778.484 448.336C778.335 448.037 778.121 447.803 777.844 447.632C777.567 447.461 777.257 447.333 776.916 447.248C776.575 447.141 776.212 447.056 775.828 446.992L773.236 446.608C772.66 446.523 772.031 446.405 771.348 446.256C770.687 446.107 770.079 445.872 769.524 445.552C768.969 445.211 768.5 444.763 768.116 444.208C767.753 443.653 767.572 442.928 767.572 442.032C767.572 441.2 767.732 440.485 768.052 439.888C768.393 439.269 768.863 438.757 769.46 438.352C770.057 437.925 770.761 437.616 771.572 437.424C772.383 437.211 773.268 437.104 774.228 437.104C775.721 437.104 777.012 437.339 778.1 437.808C779.209 438.277 780.159 438.928 780.948 439.76L779.284 441.328C779.092 441.093 778.847 440.859 778.548 440.624C778.271 440.368 777.919 440.144 777.492 439.952C777.087 439.739 776.607 439.568 776.052 439.44C775.497 439.312 774.857 439.248 774.132 439.248C772.831 439.248 771.828 439.472 771.124 439.92C770.441 440.368 770.1 441.019 770.1 441.872C770.1 442.299 770.175 442.661 770.324 442.96C770.495 443.237 770.719 443.461 770.996 443.632C771.273 443.803 771.583 443.941 771.924 444.048C772.287 444.133 772.649 444.208 773.012 444.272L775.604 444.656C776.201 444.741 776.831 444.859 777.492 445.008C778.153 445.157 778.761 445.403 779.316 445.744C779.871 446.064 780.329 446.501 780.692 447.056C781.076 447.611 781.268 448.336 781.268 449.232C781.268 450.875 780.628 452.144 779.348 453.04C778.089 453.936 776.404 454.384 774.292 454.384Z" fill="#2BBC8A"/>
<path d="M12 314.48C10.2933 314.48 8.82667 314.16 7.6 313.52C6.37333 312.853 5.36 311.907 4.56 310.68C3.76 309.453 3.17333 307.947 2.8 306.16C2.42667 304.373 2.24 302.333 2.24 300.04C2.24 297.773 2.42667 295.747 2.8 293.96C3.17333 292.147 3.76 290.627 4.56 289.4C5.36 288.173 6.37333 287.24 7.6 286.6C8.82667 285.933 10.2933 285.6 12 285.6C13.7067 285.6 15.1733 285.933 16.4 286.6C17.6267 287.24 18.64 288.173 19.44 289.4C20.24 290.627 20.8267 292.147 21.2 293.96C21.5733 295.747 21.76 297.773 21.76 300.04C21.76 302.333 21.5733 304.373 21.2 306.16C20.8267 307.947 20.24 309.453 19.44 310.68C18.64 311.907 17.6267 312.853 16.4 313.52C15.1733 314.16 13.7067 314.48 12 314.48ZM12 311.56C13.12 311.56 14.08 311.347 14.88 310.92C15.68 310.467 16.32 309.84 16.8 309.04C17.3067 308.24 17.68 307.28 17.92 306.16C18.16 305.013 18.28 303.733 18.28 302.32V297.76C18.28 296.373 18.16 295.107 17.92 293.96C17.68 292.813 17.3067 291.84 16.8 291.04C16.32 290.24 15.68 289.627 14.88 289.2C14.08 288.747 13.12 288.52 12 288.52C10.88 288.52 9.92 288.747 9.12 289.2C8.32 289.627 7.66667 290.24 7.16 291.04C6.68 291.84 6.32 292.813 6.08 293.96C5.84 295.107 5.72 296.373 5.72 297.76V302.32C5.72 303.733 5.84 305.013 6.08 306.16C6.32 307.28 6.68 308.24 7.16 309.04C7.66667 309.84 8.32 310.467 9.12 310.92C9.92 311.347 10.88 311.56 12 311.56ZM12 302.4C11.0667 302.4 10.4133 302.213 10.04 301.84C9.69333 301.467 9.52 301.013 9.52 300.48V299.6C9.52 299.067 9.69333 298.613 10.04 298.24C10.4133 297.867 11.0667 297.68 12 297.68C12.9333 297.68 13.5733 297.867 13.92 298.24C14.2933 298.613 14.48 299.067 14.48 299.6V300.48C14.48 301.013 14.2933 301.467 13.92 301.84C13.5733 302.213 12.9333 302.4 12 302.4ZM30.7444 299.76C28.9844 299.76 27.5444 299.173 26.4244 298C25.331 296.8 24.7844 295.027 24.7844 292.68C24.7844 290.333 25.331 288.573 26.4244 287.4C27.5444 286.2 28.9844 285.6 30.7444 285.6C32.5044 285.6 33.931 286.2 35.0244 287.4C36.1444 288.573 36.7044 290.333 36.7044 292.68C36.7044 295.027 36.1444 296.8 35.0244 298C33.931 299.173 32.5044 299.76 30.7444 299.76ZM30.7444 297.6C31.7044 297.6 32.4777 297.267 33.0644 296.6C33.6777 295.933 33.9844 294.96 33.9844 293.68V291.68C33.9844 290.4 33.6777 289.427 33.0644 288.76C32.4777 288.093 31.7044 287.76 30.7444 287.76C29.7844 287.76 28.9977 288.093 28.3844 288.76C27.7977 289.427 27.5044 290.4 27.5044 291.68V293.68C27.5044 294.96 27.7977 295.933 28.3844 296.6C28.9977 297.267 29.7844 297.6 30.7444 297.6ZM44.3844 286.08H47.2644L40.8644 298.08H37.9844L44.3844 286.08ZM31.1044 302H33.9844L27.5844 314H24.7044L31.1044 302ZM41.2244 314.48C39.4644 314.48 38.0244 313.893 36.9044 312.72C35.811 311.52 35.2644 309.747 35.2644 307.4C35.2644 305.053 35.811 303.293 36.9044 302.12C38.0244 300.92 39.4644 300.32 41.2244 300.32C42.9844 300.32 44.411 300.92 45.5044 302.12C46.6244 303.293 47.1844 305.053 47.1844 307.4C47.1844 309.747 46.6244 311.52 45.5044 312.72C44.411 313.893 42.9844 314.48 41.2244 314.48ZM41.2244 312.32C42.1844 312.32 42.9577 311.987 43.5444 311.32C44.1577 310.653 44.4644 309.68 44.4644 308.4V306.4C44.4644 305.12 44.1577 304.147 43.5444 303.48C42.9577 302.813 42.1844 302.48 41.2244 302.48C40.2644 302.48 39.4777 302.813 38.8644 303.48C38.2777 304.147 37.9844 305.12 37.9844 306.4V308.4C37.9844 309.68 38.2777 310.653 38.8644 311.32C39.4777 311.987 40.2644 312.32 41.2244 312.32Z" fill="#2BBC8A"/>
<path d="M220.04 289H207.56L206.76 299.68H207.04C207.733 298.747 208.507 298.013 209.36 297.48C210.213 296.92 211.387 296.64 212.88 296.64C214.107 296.64 215.227 296.84 216.24 297.24C217.28 297.613 218.173 298.173 218.92 298.92C219.667 299.667 220.253 300.573 220.68 301.64C221.107 302.68 221.32 303.88 221.32 305.24C221.32 306.6 221.107 307.853 220.68 309C220.253 310.12 219.627 311.093 218.8 311.92C217.973 312.72 216.973 313.347 215.8 313.8C214.627 314.253 213.293 314.48 211.8 314.48C210.627 314.48 209.573 314.347 208.64 314.08C207.733 313.813 206.92 313.453 206.2 313C205.507 312.547 204.893 312.04 204.36 311.48C203.827 310.92 203.347 310.333 202.92 309.72L205.44 307.8C205.813 308.36 206.187 308.867 206.56 309.32C206.96 309.773 207.413 310.173 207.92 310.52C208.427 310.84 209 311.093 209.64 311.28C210.28 311.467 211.027 311.56 211.88 311.56C213.8 311.56 215.267 311.04 216.28 310C217.32 308.96 217.84 307.52 217.84 305.68V305.36C217.84 303.52 217.32 302.08 216.28 301.04C215.24 300 213.747 299.48 211.8 299.48C210.467 299.48 209.427 299.707 208.68 300.16C207.96 300.613 207.293 301.173 206.68 301.84L203.84 301.44L204.84 286.08H220.04V289ZM230.744 299.76C228.984 299.76 227.544 299.173 226.424 298C225.331 296.8 224.784 295.027 224.784 292.68C224.784 290.333 225.331 288.573 226.424 287.4C227.544 286.2 228.984 285.6 230.744 285.6C232.504 285.6 233.931 286.2 235.024 287.4C236.144 288.573 236.704 290.333 236.704 292.68C236.704 295.027 236.144 296.8 235.024 298C233.931 299.173 232.504 299.76 230.744 299.76ZM230.744 297.6C231.704 297.6 232.478 297.267 233.064 296.6C233.678 295.933 233.984 294.96 233.984 293.68V291.68C233.984 290.4 233.678 289.427 233.064 288.76C232.478 288.093 231.704 287.76 230.744 287.76C229.784 287.76 228.998 288.093 228.384 288.76C227.798 289.427 227.504 290.4 227.504 291.68V293.68C227.504 294.96 227.798 295.933 228.384 296.6C228.998 297.267 229.784 297.6 230.744 297.6ZM244.384 286.08H247.264L240.864 298.08H237.984L244.384 286.08ZM231.104 302H233.984L227.584 314H224.704L231.104 302ZM241.224 314.48C239.464 314.48 238.024 313.893 236.904 312.72C235.811 311.52 235.264 309.747 235.264 307.4C235.264 305.053 235.811 303.293 236.904 302.12C238.024 300.92 239.464 300.32 241.224 300.32C242.984 300.32 244.411 300.92 245.504 302.12C246.624 303.293 247.184 305.053 247.184 307.4C247.184 309.747 246.624 311.52 245.504 312.72C244.411 313.893 242.984 314.48 241.224 314.48ZM241.224 312.32C242.184 312.32 242.958 311.987 243.544 311.32C244.158 310.653 244.464 309.68 244.464 308.4V306.4C244.464 305.12 244.158 304.147 243.544 303.48C242.958 302.813 242.184 302.48 241.224 302.48C240.264 302.48 239.478 302.813 238.864 303.48C238.278 304.147 237.984 305.12 237.984 306.4V308.4C237.984 309.68 238.278 310.653 238.864 311.32C239.478 311.987 240.264 312.32 241.224 312.32Z" fill="#2BBC8A"/>
<path d="M350.04 289H337.56L336.76 299.68H337.04C337.733 298.747 338.507 298.013 339.36 297.48C340.213 296.92 341.387 296.64 342.88 296.64C344.107 296.64 345.227 296.84 346.24 297.24C347.28 297.613 348.173 298.173 348.92 298.92C349.667 299.667 350.253 300.573 350.68 301.64C351.107 302.68 351.32 303.88 351.32 305.24C351.32 306.6 351.107 307.853 350.68 309C350.253 310.12 349.627 311.093 348.8 311.92C347.973 312.72 346.973 313.347 345.8 313.8C344.627 314.253 343.293 314.48 341.8 314.48C340.627 314.48 339.573 314.347 338.64 314.08C337.733 313.813 336.92 313.453 336.2 313C335.507 312.547 334.893 312.04 334.36 311.48C333.827 310.92 333.347 310.333 332.92 309.72L335.44 307.8C335.813 308.36 336.187 308.867 336.56 309.32C336.96 309.773 337.413 310.173 337.92 310.52C338.427 310.84 339 311.093 339.64 311.28C340.28 311.467 341.027 311.56 341.88 311.56C343.8 311.56 345.267 311.04 346.28 310C347.32 308.96 347.84 307.52 347.84 305.68V305.36C347.84 303.52 347.32 302.08 346.28 301.04C345.24 300 343.747 299.48 341.8 299.48C340.467 299.48 339.427 299.707 338.68 300.16C337.96 300.613 337.293 301.173 336.68 301.84L333.84 301.44L334.84 286.08H350.04V289ZM360.744 299.76C358.984 299.76 357.544 299.173 356.424 298C355.331 296.8 354.784 295.027 354.784 292.68C354.784 290.333 355.331 288.573 356.424 287.4C357.544 286.2 358.984 285.6 360.744 285.6C362.504 285.6 363.931 286.2 365.024 287.4C366.144 288.573 366.704 290.333 366.704 292.68C366.704 295.027 366.144 296.8 365.024 298C363.931 299.173 362.504 299.76 360.744 299.76ZM360.744 297.6C361.704 297.6 362.478 297.267 363.064 296.6C363.678 295.933 363.984 294.96 363.984 293.68V291.68C363.984 290.4 363.678 289.427 363.064 288.76C362.478 288.093 361.704 287.76 360.744 287.76C359.784 287.76 358.998 288.093 358.384 288.76C357.798 289.427 357.504 290.4 357.504 291.68V293.68C357.504 294.96 357.798 295.933 358.384 296.6C358.998 297.267 359.784 297.6 360.744 297.6ZM374.384 286.08H377.264L370.864 298.08H367.984L374.384 286.08ZM361.104 302H363.984L357.584 314H354.704L361.104 302ZM371.224 314.48C369.464 314.48 368.024 313.893 366.904 312.72C365.811 311.52 365.264 309.747 365.264 307.4C365.264 305.053 365.811 303.293 366.904 302.12C368.024 300.92 369.464 300.32 371.224 300.32C372.984 300.32 374.411 300.92 375.504 302.12C376.624 303.293 377.184 305.053 377.184 307.4C377.184 309.747 376.624 311.52 375.504 312.72C374.411 313.893 372.984 314.48 371.224 314.48ZM371.224 312.32C372.184 312.32 372.958 311.987 373.544 311.32C374.158 310.653 374.464 309.68 374.464 308.4V306.4C374.464 305.12 374.158 304.147 373.544 303.48C372.958 302.813 372.184 302.48 371.224 302.48C370.264 302.48 369.478 302.813 368.864 303.48C368.278 304.147 367.984 305.12 367.984 306.4V308.4C367.984 309.68 368.278 310.653 368.864 311.32C369.478 311.987 370.264 312.32 371.224 312.32Z" fill="#2BBC8A"/>
<path d="M649.4 314V311.08H657.4V288.56H657.12L650.08 295.12L648.12 293L655.52 286.08H660.76V311.08H668.12V314H649.4ZM681.984 314.48C680.278 314.48 678.811 314.16 677.584 313.52C676.358 312.853 675.344 311.907 674.544 310.68C673.744 309.453 673.158 307.947 672.784 306.16C672.411 304.373 672.224 302.333 672.224 300.04C672.224 297.773 672.411 295.747 672.784 293.96C673.158 292.147 673.744 290.627 674.544 289.4C675.344 288.173 676.358 287.24 677.584 286.6C678.811 285.933 680.278 285.6 681.984 285.6C683.691 285.6 685.158 285.933 686.384 286.6C687.611 287.24 688.624 288.173 689.424 289.4C690.224 290.627 690.811 292.147 691.184 293.96C691.558 295.747 691.744 297.773 691.744 300.04C691.744 302.333 691.558 304.373 691.184 306.16C690.811 307.947 690.224 309.453 689.424 310.68C688.624 311.907 687.611 312.853 686.384 313.52C685.158 314.16 683.691 314.48 681.984 314.48ZM681.984 311.56C683.104 311.56 684.064 311.347 684.864 310.92C685.664 310.467 686.304 309.84 686.784 309.04C687.291 308.24 687.664 307.28 687.904 306.16C688.144 305.013 688.264 303.733 688.264 302.32V297.76C688.264 296.373 688.144 295.107 687.904 293.96C687.664 292.813 687.291 291.84 686.784 291.04C686.304 290.24 685.664 289.627 684.864 289.2C684.064 288.747 683.104 288.52 681.984 288.52C680.864 288.52 679.904 288.747 679.104 289.2C678.304 289.627 677.651 290.24 677.144 291.04C676.664 291.84 676.304 292.813 676.064 293.96C675.824 295.107 675.704 296.373 675.704 297.76V302.32C675.704 303.733 675.824 305.013 676.064 306.16C676.304 307.28 676.664 308.24 677.144 309.04C677.651 309.84 678.304 310.467 679.104 310.92C679.904 311.347 680.864 311.56 681.984 311.56ZM681.984 302.4C681.051 302.4 680.398 302.213 680.024 301.84C679.678 301.467 679.504 301.013 679.504 300.48V299.6C679.504 299.067 679.678 298.613 680.024 298.24C680.398 297.867 681.051 297.68 681.984 297.68C682.918 297.68 683.558 297.867 683.904 298.24C684.278 298.613 684.464 299.067 684.464 299.6V300.48C684.464 301.013 684.278 301.467 683.904 301.84C683.558 302.213 682.918 302.4 681.984 302.4ZM696.409 314L704.089 303.52L696.609 293.36H700.449L703.569 297.72L706.049 301.16H706.209L708.609 297.72L711.689 293.36H715.369L707.809 303.48L715.569 314H711.729L708.249 309.16L705.889 305.88H705.729L703.449 309.16L700.089 314H696.409ZM728.433 311.52V303.16H720.433V300.44H728.433V292.08H731.473V300.44H739.473V303.16H731.473V311.52H728.433Z" fill="#2BBC8A"/>
<path d="M97.8 313.72C97.8 314.653 97.6133 315.307 97.24 315.68C96.84 316.053 96.3467 316.24 95.76 316.24H95.12C94.5333 316.24 94.0533 316.053 93.68 315.68C93.28 315.307 93.08 314.653 93.08 313.72C93.08 312.787 93.28 312.133 93.68 311.76C94.0533 311.387 94.5333 311.2 95.12 311.2H95.76C96.3467 311.2 96.84 311.387 97.24 311.76C97.6133 312.133 97.8 312.787 97.8 313.72ZM120.28 322.76V315.32H105.08V322.76H102.36V312.12H120.28V305.16H123V322.76H120.28ZM123 299.096H102.36V295.896H105.72V295.736C105.213 295.522 104.733 295.256 104.28 294.936C103.8 294.616 103.387 294.229 103.04 293.776C102.693 293.296 102.413 292.736 102.2 292.096C101.987 291.456 101.88 290.709 101.88 289.856C101.88 287.696 102.573 285.962 103.96 284.656C105.32 283.349 107.253 282.696 109.76 282.696H123V285.896H110.32C108.427 285.896 107.027 286.309 106.12 287.136C105.187 287.962 104.72 289.176 104.72 290.776C104.72 291.416 104.8 292.042 104.96 292.656C105.12 293.269 105.36 293.816 105.68 294.296C106 294.776 106.413 295.162 106.92 295.456C107.427 295.749 108.013 295.896 108.68 295.896H123V299.096ZM120.28 275.711V268.751H105.08V276.111H102.36V268.751H98.12C96.7333 268.751 95.6 268.391 94.72 267.671C93.84 266.925 93.4 265.765 93.4 264.191V257.271H96.12V265.551H102.36V257.271H105.08V265.551H120.28V258.191H123V275.711H120.28ZM120.28 251.847V244.647H96.12V251.847H93.4V241.447H120.28V234.247H123V251.847H120.28ZM123 211.262C123 212.516 122.68 213.409 122.04 213.942C121.4 214.476 120.6 214.809 119.64 214.942V215.142C120.84 215.596 121.787 216.329 122.48 217.342C123.147 218.329 123.48 219.662 123.48 221.342C123.48 223.502 122.92 225.222 121.8 226.502C120.68 227.782 119.147 228.423 117.2 228.423C115.28 228.423 113.8 227.729 112.76 226.342C111.72 224.929 111.2 222.662 111.2 219.542V215.142H109.16C107.64 215.142 106.507 215.569 105.76 216.422C104.987 217.276 104.6 218.489 104.6 220.062C104.6 221.449 104.88 222.582 105.44 223.462C105.973 224.342 106.707 225.049 107.64 225.582L106.04 227.742C105.507 227.476 104.987 227.116 104.48 226.662C103.973 226.209 103.533 225.649 103.16 224.982C102.76 224.316 102.453 223.556 102.24 222.702C102 221.849 101.88 220.902 101.88 219.862C101.88 217.436 102.493 215.516 103.72 214.102C104.947 212.662 106.653 211.942 108.84 211.942H120.2V209.062H123V211.262ZM120.8 220.783C120.8 219.956 120.707 219.209 120.52 218.542C120.307 217.849 120.04 217.249 119.72 216.742C119.373 216.236 118.973 215.849 118.52 215.582C118.04 215.289 117.533 215.142 117 215.142H113.6V219.542C113.6 221.462 113.867 222.862 114.4 223.742C114.933 224.622 115.707 225.062 116.72 225.062H117.56C118.627 225.062 119.44 224.689 120 223.942C120.533 223.169 120.8 222.116 120.8 220.783ZM94.8 225.302V214.102H97.52V225.302H94.8ZM123.48 194.358C123.48 195.851 123.227 197.185 122.72 198.358C122.187 199.505 121.453 200.478 120.52 201.278C119.587 202.078 118.453 202.691 117.12 203.118C115.787 203.518 114.307 203.718 112.68 203.718C111.053 203.718 109.573 203.505 108.24 203.078C106.907 202.651 105.773 202.038 104.84 201.238C103.88 200.438 103.147 199.465 102.64 198.318C102.133 197.171 101.88 195.865 101.88 194.398C101.88 192.398 102.32 190.771 103.2 189.518C104.08 188.265 105.227 187.345 106.64 186.758L108 189.318C106.933 189.691 106.107 190.318 105.52 191.198C104.933 192.051 104.64 193.118 104.64 194.398C104.64 195.331 104.8 196.171 105.12 196.918C105.413 197.638 105.84 198.251 106.4 198.758C106.96 199.265 107.627 199.651 108.4 199.918C109.173 200.158 110.013 200.278 110.92 200.278H114.44C115.347 200.278 116.187 200.158 116.96 199.918C117.733 199.651 118.4 199.265 118.96 198.758C119.52 198.251 119.96 197.625 120.28 196.878C120.573 196.131 120.72 195.278 120.72 194.318C120.72 192.931 120.4 191.785 119.76 190.878C119.12 189.971 118.24 189.251 117.12 188.718L118.68 186.438C120.067 187.051 121.213 188.011 122.12 189.318C123.027 190.598 123.48 192.278 123.48 194.358ZM97.8 169.814C97.8 170.747 97.6133 171.4 97.24 171.774C96.84 172.147 96.3467 172.334 95.76 172.334H95.12C94.5333 172.334 94.0533 172.147 93.68 171.774C93.28 171.4 93.08 170.747 93.08 169.814C93.08 168.88 93.28 168.227 93.68 167.854C94.0533 167.48 94.5333 167.294 95.12 167.294H95.76C96.3467 167.294 96.84 167.48 97.24 167.854C97.6133 168.227 97.8 168.88 97.8 169.814ZM120.28 178.854V171.414H105.08V178.854H102.36V168.214H120.28V161.254H123V178.854H120.28ZM128.28 155.029V145.029H105.08V155.389H102.36V141.829H126.28C127.667 141.829 128.8 142.203 129.68 142.949C130.56 143.669 131 144.816 131 146.389V155.029H128.28ZM97.8 143.429C97.8 144.363 97.6133 145.016 97.24 145.389C96.84 145.763 96.3467 145.949 95.76 145.949H95.12C94.5333 145.949 94.0533 145.763 93.68 145.389C93.28 145.016 93.08 144.363 93.08 143.429C93.08 142.496 93.28 141.843 93.68 141.469C94.0533 141.096 94.5333 140.909 95.12 140.909H95.76C96.3467 140.909 96.84 141.096 97.24 141.469C97.6133 141.843 97.8 142.496 97.8 143.429ZM123 115.325C123 116.578 122.68 117.472 122.04 118.005C121.4 118.538 120.6 118.872 119.64 119.005V119.205C120.84 119.658 121.787 120.392 122.48 121.405C123.147 122.392 123.48 123.725 123.48 125.405C123.48 127.565 122.92 129.285 121.8 130.565C120.68 131.845 119.147 132.485 117.2 132.485C115.28 132.485 113.8 131.792 112.76 130.405C111.72 128.992 111.2 126.725 111.2 123.605V119.205H109.16C107.64 119.205 106.507 119.632 105.76 120.485C104.987 121.338 104.6 122.552 104.6 124.125C104.6 125.512 104.88 126.645 105.44 127.525C105.973 128.405 106.707 129.112 107.64 129.645L106.04 131.805C105.507 131.538 104.987 131.178 104.48 130.725C103.973 130.272 103.533 129.712 103.16 129.045C102.76 128.378 102.453 127.618 102.24 126.765C102 125.912 101.88 124.965 101.88 123.925C101.88 121.498 102.493 119.578 103.72 118.165C104.947 116.725 106.653 116.005 108.84 116.005H120.2V113.125H123V115.325ZM120.8 124.845C120.8 124.018 120.707 123.272 120.52 122.605C120.307 121.912 120.04 121.312 119.72 120.805C119.373 120.298 118.973 119.912 118.52 119.645C118.04 119.352 117.533 119.205 117 119.205H113.6V123.605C113.6 125.525 113.867 126.925 114.4 127.805C114.933 128.685 115.707 129.125 116.72 129.125H117.56C118.627 129.125 119.44 128.752 120 128.005C120.533 127.232 120.8 126.178 120.8 124.845Z" fill="#2BBC8A"/>
<path d="M364.52 253.52H356.16V261.52H353.44V253.52H345.08V250.48H353.44V242.48H356.16V250.48H364.52V253.52ZM341.8 202.751C341.8 203.685 341.613 204.338 341.24 204.711C340.84 205.085 340.347 205.271 339.76 205.271H339.12C338.533 205.271 338.053 205.085 337.68 204.711C337.28 204.338 337.08 203.685 337.08 202.751C337.08 201.818 337.28 201.165 337.68 200.791C338.053 200.418 338.533 200.231 339.12 200.231H339.76C340.347 200.231 340.84 200.418 341.24 200.791C341.613 201.165 341.8 201.818 341.8 202.751ZM364.28 211.791V204.351H349.08V211.791H346.36V201.151H364.28V194.191H367V211.791H364.28ZM367 188.127H346.36V184.927H349.72V184.767C349.213 184.554 348.733 184.287 348.28 183.967C347.8 183.647 347.387 183.26 347.04 182.807C346.693 182.327 346.413 181.767 346.2 181.127C345.987 180.487 345.88 179.74 345.88 178.887C345.88 176.727 346.573 174.994 347.96 173.687C349.32 172.38 351.253 171.727 353.76 171.727H367V174.927H354.32C352.427 174.927 351.027 175.34 350.12 176.167C349.187 176.994 348.72 178.207 348.72 179.807C348.72 180.447 348.8 181.074 348.96 181.687C349.12 182.3 349.36 182.847 349.68 183.327C350 183.807 350.413 184.194 350.92 184.487C351.427 184.78 352.013 184.927 352.68 184.927H367V188.127ZM364.28 164.742V157.783H349.08V165.142H346.36V157.783H342.12C340.733 157.783 339.6 157.422 338.72 156.702C337.84 155.956 337.4 154.796 337.4 153.222V146.302H340.12V154.582H346.36V146.302H349.08V154.582H364.28V147.222H367V164.742H364.28ZM364.28 140.878V133.678H340.12V140.878H337.4V130.478H364.28V123.278H367V140.878H364.28ZM367 100.294C367 101.547 366.68 102.44 366.04 102.974C365.4 103.507 364.6 103.84 363.64 103.974V104.174C364.84 104.627 365.787 105.36 366.48 106.374C367.147 107.36 367.48 108.694 367.48 110.374C367.48 112.534 366.92 114.254 365.8 115.534C364.68 116.814 363.147 117.454 361.2 117.454C359.28 117.454 357.8 116.76 356.76 115.374C355.72 113.96 355.2 111.694 355.2 108.574V104.174H353.16C351.64 104.174 350.507 104.6 349.76 105.454C348.987 106.307 348.6 107.52 348.6 109.094C348.6 110.48 348.88 111.614 349.44 112.494C349.973 113.374 350.707 114.08 351.64 114.614L350.04 116.774C349.507 116.507 348.987 116.147 348.48 115.694C347.973 115.24 347.533 114.68 347.16 114.014C346.76 113.347 346.453 112.587 346.24 111.734C346 110.88 345.88 109.934 345.88 108.894C345.88 106.467 346.493 104.547 347.72 103.134C348.947 101.694 350.653 100.974 352.84 100.974H364.2V98.0937H367V100.294ZM364.8 109.814C364.8 108.987 364.707 108.24 364.52 107.574C364.307 106.88 364.04 106.28 363.72 105.774C363.373 105.267 362.973 104.88 362.52 104.614C362.04 104.32 361.533 104.174 361 104.174H357.6V108.574C357.6 110.494 357.867 111.894 358.4 112.774C358.933 113.654 359.707 114.094 360.72 114.094H361.56C362.627 114.094 363.44 113.72 364 112.974C364.533 112.2 364.8 111.147 364.8 109.814ZM338.8 114.334V103.134H341.52V114.334H338.8ZM367.48 83.3894C367.48 84.8827 367.227 86.216 366.72 87.3894C366.187 88.536 365.453 89.5094 364.52 90.3094C363.587 91.1094 362.453 91.7227 361.12 92.1494C359.787 92.5494 358.307 92.7494 356.68 92.7494C355.053 92.7494 353.573 92.536 352.24 92.1094C350.907 91.6827 349.773 91.0694 348.84 90.2694C347.88 89.4694 347.147 88.496 346.64 87.3494C346.133 86.2027 345.88 84.896 345.88 83.4294C345.88 81.4294 346.32 79.8027 347.2 78.5494C348.08 77.296 349.227 76.376 350.64 75.7894L352 78.3494C350.933 78.7227 350.107 79.3494 349.52 80.2294C348.933 81.0827 348.64 82.1494 348.64 83.4294C348.64 84.3627 348.8 85.2027 349.12 85.9494C349.413 86.6694 349.84 87.2827 350.4 87.7894C350.96 88.296 351.627 88.6827 352.4 88.9494C353.173 89.1894 354.013 89.3094 354.92 89.3094H358.44C359.347 89.3094 360.187 89.1894 360.96 88.9494C361.733 88.6827 362.4 88.296 362.96 87.7894C363.52 87.2827 363.96 86.656 364.28 85.9094C364.573 85.1627 364.72 84.3094 364.72 83.3494C364.72 81.9627 364.4 80.816 363.76 79.9094C363.12 79.0027 362.24 78.2827 361.12 77.7494L362.68 75.4694C364.067 76.0827 365.213 77.0427 366.12 78.3494C367.027 79.6294 367.48 81.3094 367.48 83.3894ZM341.8 58.845C341.8 59.7783 341.613 60.4317 341.24 60.805C340.84 61.1783 340.347 61.365 339.76 61.365H339.12C338.533 61.365 338.053 61.1783 337.68 60.805C337.28 60.4317 337.08 59.7783 337.08 58.845C337.08 57.9117 337.28 57.2583 337.68 56.885C338.053 56.5117 338.533 56.325 339.12 56.325H339.76C340.347 56.325 340.84 56.5117 341.24 56.885C341.613 57.2583 341.8 57.9117 341.8 58.845ZM364.28 67.885V60.445H349.08V67.885H346.36V57.245H364.28V50.285H367V67.885H364.28ZM372.28 44.0606V34.0606H349.08V44.4206H346.36V30.8606H370.28C371.667 30.8606 372.8 31.234 373.68 31.9806C374.56 32.7006 375 33.8473 375 35.4206V44.0606H372.28ZM341.8 32.4606C341.8 33.394 341.613 34.0473 341.24 34.4206C340.84 34.794 340.347 34.9806 339.76 34.9806H339.12C338.533 34.9806 338.053 34.794 337.68 34.4206C337.28 34.0473 337.08 33.394 337.08 32.4606C337.08 31.5273 337.28 30.874 337.68 30.5006C338.053 30.1273 338.533 29.9406 339.12 29.9406H339.76C340.347 29.9406 340.84 30.1273 341.24 30.5006C341.613 30.874 341.8 31.5273 341.8 32.4606ZM367 4.35625C367 5.60958 366.68 6.50292 366.04 7.03625C365.4 7.56958 364.6 7.90292 363.64 8.03625V8.23625C364.84 8.68958 365.787 9.42292 366.48 10.4362C367.147 11.4229 367.48 12.7562 367.48 14.4362C367.48 16.5962 366.92 18.3162 365.8 19.5962C364.68 20.8762 363.147 21.5163 361.2 21.5163C359.28 21.5163 357.8 20.8229 356.76 19.4362C355.72 18.0229 355.2 15.7562 355.2 12.6362V8.23625H353.16C351.64 8.23625 350.507 8.66292 349.76 9.51625C348.987 10.3696 348.6 11.5829 348.6 13.1562C348.6 14.5429 348.88 15.6762 349.44 16.5562C349.973 17.4362 350.707 18.1429 351.64 18.6762L350.04 20.8362C349.507 20.5696 348.987 20.2096 348.48 19.7562C347.973 19.3029 347.533 18.7429 347.16 18.0762C346.76 17.4096 346.453 16.6496 346.24 15.7962C346 14.9429 345.88 13.9962 345.88 12.9562C345.88 10.5296 346.493 8.60958 347.72 7.19625C348.947 5.75625 350.653 5.03625 352.84 5.03625H364.2V2.15625H367V4.35625ZM364.8 13.8763C364.8 13.0496 364.707 12.3029 364.52 11.6362C364.307 10.9429 364.04 10.3429 363.72 9.83625C363.373 9.32958 362.973 8.94292 362.52 8.67625C362.04 8.38292 361.533 8.23625 361 8.23625H357.6V12.6362C357.6 14.5562 357.867 15.9562 358.4 16.8362C358.933 17.7162 359.707 18.1562 360.72 18.1562H361.56C362.627 18.1562 363.44 17.7829 364 17.0362C364.533 16.2629 364.8 15.2096 364.8 13.8763Z" fill="#2BBC8A"/>
<line x1="25" y1="341" x2="25" y2="399" stroke="#2BBC8A" stroke-width="2"/>
<line x1="115" y1="341" x2="115" y2="399" stroke="#2BBC8A" stroke-width="2"/>
<line x1="225" y1="341" x2="225" y2="399" stroke="#2BBC8A" stroke-width="2"/>
<line x1="355" y1="341" x2="355" y2="399" stroke="#2BBC8A" stroke-width="2"/>
<line x1="695" y1="341" x2="695" y2="399" stroke="#2BBC8A" stroke-width="2"/>
</svg>
