<svg width="889" height="305" viewBox="0 0 889 305" fill="none" xmlns="http://www.w3.org/2000/svg">
<path d="M757.828 152.828C759.391 151.266 759.391 148.734 757.828 147.172L732.373 121.716C730.811 120.154 728.278 120.154 726.716 121.716C725.154 123.278 725.154 125.811 726.716 127.373L749.343 150L726.716 172.627C725.154 174.19 725.154 176.722 726.716 178.284C728.278 179.846 730.811 179.846 732.373 178.284L757.828 152.828ZM127 154L755 154L755 146L127 146L127 154Z" fill="#2BBC8A"/>
<path d="M360.504 116H352.12V71.328H369.08C373.432 71.328 376.76 72.5653 379.064 75.04C381.368 77.5147 382.52 80.8853 382.52 85.152C382.52 88.4373 381.752 91.2107 380.216 93.472C378.723 95.6907 376.568 97.0987 373.752 97.696L383.288 116H374.072L365.56 98.656H360.504V116ZM367.352 92.128C369.613 92.128 371.235 91.68 372.216 90.784C373.197 89.8453 373.688 88.3733 373.688 86.368V83.936C373.688 81.9307 373.197 80.48 372.216 79.584C371.235 78.6453 369.613 78.176 367.352 78.176H360.504V92.128H367.352ZM390.367 116V109.728H400.415V77.6H390.367V71.328H418.783V77.6H408.735V109.728H418.783V116H390.367ZM442.438 116.768C438.598 116.768 435.313 116.107 432.582 114.784C429.894 113.461 427.697 111.712 425.99 109.536L431.046 104.288C432.71 106.208 434.502 107.637 436.422 108.576C438.385 109.472 440.475 109.92 442.694 109.92C445.254 109.92 447.217 109.344 448.582 108.192C449.947 107.04 450.63 105.376 450.63 103.2C450.63 101.408 450.118 100.064 449.094 99.168C448.07 98.2293 446.342 97.568 443.91 97.184L439.174 96.416C435.035 95.6907 432.091 94.1973 430.342 91.936C428.593 89.632 427.718 86.9227 427.718 83.808C427.718 79.5413 429.105 76.2773 431.878 74.016C434.651 71.712 438.491 70.56 443.398 70.56C446.897 70.56 449.905 71.1147 452.422 72.224C454.982 73.3333 457.03 74.848 458.566 76.768L453.638 82.016C452.443 80.608 451.014 79.4987 449.35 78.688C447.686 77.8347 445.723 77.408 443.462 77.408C438.598 77.408 436.166 79.4133 436.166 83.424C436.166 85.1307 436.678 86.432 437.702 87.328C438.726 88.224 440.475 88.8853 442.95 89.312L447.622 90.144C451.505 90.8693 454.385 92.2987 456.262 94.432C458.139 96.5653 459.078 99.296 459.078 102.624C459.078 104.715 458.715 106.635 457.99 108.384C457.265 110.091 456.198 111.584 454.79 112.864C453.382 114.101 451.633 115.061 449.542 115.744C447.494 116.427 445.126 116.768 442.438 116.768ZM479.853 96.416L475.181 102.56V116H466.797V71.328H475.181V91.424H475.565L480.749 84L490.157 71.328H499.629L485.613 90.144L500.269 116H490.797L479.853 96.416ZM519.188 116.768C515.348 116.768 512.063 116.107 509.332 114.784C506.644 113.461 504.447 111.712 502.74 109.536L507.796 104.288C509.46 106.208 511.252 107.637 513.172 108.576C515.135 109.472 517.225 109.92 519.444 109.92C522.004 109.92 523.967 109.344 525.332 108.192C526.697 107.04 527.38 105.376 527.38 103.2C527.38 101.408 526.868 100.064 525.844 99.168C524.82 98.2293 523.092 97.568 520.66 97.184L515.924 96.416C511.785 95.6907 508.841 94.1973 507.092 91.936C505.343 89.632 504.468 86.9227 504.468 83.808C504.468 79.5413 505.855 76.2773 508.628 74.016C511.401 71.712 515.241 70.56 520.148 70.56C523.647 70.56 526.655 71.1147 529.172 72.224C531.732 73.3333 533.78 74.848 535.316 76.768L530.388 82.016C529.193 80.608 527.764 79.4987 526.1 78.688C524.436 77.8347 522.473 77.408 520.212 77.408C515.348 77.408 512.916 79.4133 512.916 83.424C512.916 85.1307 513.428 86.432 514.452 87.328C515.476 88.224 517.225 88.8853 519.7 89.312L524.372 90.144C528.255 90.8693 531.135 92.2987 533.012 94.432C534.889 96.5653 535.828 99.296 535.828 102.624C535.828 104.715 535.465 106.635 534.74 108.384C534.015 110.091 532.948 111.584 531.54 112.864C530.132 114.101 528.383 115.061 526.292 115.744C524.244 116.427 521.876 116.768 519.188 116.768Z" fill="#2BBC8A"/>
<path fill-rule="evenodd" clip-rule="evenodd" d="M743.908 2.03197C811.542 3.40213 863.404 58.0922 881.864 123.226C898.241 181.009 869.965 239.554 821.114 274.44C773.664 308.326 711.391 312.067 663.023 279.508C608.351 242.706 569.168 180.568 587.621 117.265C607.656 48.5337 672.385 0.583016 743.908 2.03197Z" fill="#205444" fill-opacity="0.3" stroke="#2BBC8A" stroke-width="4"/>
<path fill-rule="evenodd" clip-rule="evenodd" d="M184.161 2.62331C243.602 7.24207 275.409 66.2286 292.023 123.748C306.639 174.353 300.219 229.892 259.341 262.907C211.45 301.587 145.639 317.064 93.8947 283.767C31.7904 243.803 -13.7389 172.263 8.90108 101.749C31.6538 30.8833 110.261 -3.11892 184.161 2.62331Z" fill="#205444" fill-opacity="0.3" stroke="#2BBC8A" stroke-width="4"/>
<path d="M66.5641 121.423L61.3279 124.904L42.7775 97.0044L53.3698 89.9616C56.0879 88.1544 58.6802 87.5452 61.1468 88.134C63.6134 88.7228 65.7325 90.3496 67.5043 93.0143C68.8686 95.0661 69.5406 97.1171 69.5203 99.1673C69.5089 101.173 68.7479 102.947 67.2372 104.49L80.7938 111.961L75.038 115.788L62.5196 108.491L59.3619 110.591L66.5641 121.423ZM60.928 103.67C62.3403 102.731 63.1669 101.778 63.4077 100.811C63.6308 99.8168 63.326 98.6937 62.4932 97.4413L61.4833 95.9224C60.6506 94.67 59.7418 93.9677 58.7568 93.8156C57.7541 93.6369 56.5466 94.017 55.1343 94.9561L50.8574 97.7998L56.6511 106.513L60.928 103.67ZM94.4075 103.602C92.8353 104.647 91.2547 105.333 89.6656 105.659C88.1032 105.968 86.5722 105.948 85.0728 105.6C83.5999 105.235 82.1807 104.545 80.8152 103.532C79.4763 102.5 78.2576 101.159 77.1591 99.5066C76.0606 97.8545 75.2949 96.2116 74.8621 94.578C74.4558 92.9267 74.369 91.3513 74.6016 89.8517C74.8609 88.3343 75.4351 86.915 76.3242 85.5937C77.24 84.2546 78.484 83.0625 80.0562 82.0171C81.6018 80.9895 83.1691 80.3125 84.7581 79.986C86.3472 79.6596 87.8781 79.6792 89.351 80.0449C90.8505 80.3929 92.2696 81.0825 93.6085 82.1137C94.9741 83.1271 96.2061 84.4599 97.3046 86.1121C98.4031 87.7642 99.1554 89.4159 99.5617 91.0672C99.9945 92.7008 100.081 94.2762 99.8221 95.7936C99.5895 97.2932 99.0153 98.7125 98.0995 100.052C97.1837 101.391 95.9531 102.574 94.4075 103.602ZM91.803 99.6844C93.2686 98.7099 94.1354 97.4995 94.4035 96.0532C94.6538 94.5802 94.2031 92.9776 93.0515 91.2456L90.9254 88.0479C89.7737 86.3158 88.4792 85.2936 87.0418 84.9812C85.5867 84.6421 84.1263 84.9598 82.6607 85.9343C81.1951 86.9088 80.3371 88.1325 80.0868 89.6055C79.8188 91.0518 80.2606 92.641 81.4122 94.3731L83.5383 97.5708C84.69 99.3029 85.9934 100.338 87.4485 100.677C88.8859 100.99 90.3374 100.659 91.803 99.6844ZM119.455 86.2562C117.483 87.5673 115.685 88.0133 114.061 87.5942C112.438 87.175 111.077 86.1394 109.978 84.4872L102.67 73.4952L96.6739 77.4817L93.9897 73.4446L98.0667 70.7338C98.8928 70.1845 99.3727 69.6349 99.5065 69.0848C99.6226 68.508 99.3972 67.7933 98.8302 66.9406L95.5081 61.9442L100.265 58.7816L105.102 66.0563L113.496 60.4753L116.18 64.5123L107.786 70.0934L116.131 82.6443L124.525 77.0633L127.209 81.1004L119.455 86.2562ZM149.617 66.2013C148.365 67.0341 147.188 67.3743 146.088 67.2221C144.997 67.0255 144.012 66.4119 143.135 65.3813L142.935 65.5142C143.412 67.0413 143.344 68.5278 142.73 69.9737C142.098 71.393 140.983 72.6341 139.384 73.6972C137.305 75.0792 135.29 75.6314 133.338 75.3538C131.385 75.0763 129.763 73.9649 128.469 72.0197C125.705 67.8627 127.375 63.7555 133.477 59.6981L137.114 57.2797L136.211 55.9207C135.342 54.6149 134.367 53.8416 133.285 53.6006C132.202 53.3597 130.941 53.7176 129.502 54.6743C128.197 55.5425 127.312 56.4955 126.85 57.5333C126.387 58.5711 126.141 59.6758 126.113 60.8473L121.548 60.3092C121.425 58.7381 121.814 57.0967 122.712 55.3849C123.619 53.6287 125.206 51.9976 127.471 50.4916C130.189 48.6844 132.732 47.9154 135.102 48.1846C137.48 48.4094 139.502 49.7742 141.167 52.279L147.625 61.992L150.064 60.3709L152.615 64.2081L149.617 66.2013ZM138.764 69.0369C139.99 68.2219 140.816 67.2688 141.243 66.1777C141.68 65.0422 141.57 63.9815 140.915 62.9956L139.081 60.2375L135.563 62.5763C132.765 64.4366 131.951 66.2462 133.12 68.0049L133.652 68.8043C134.201 69.6304 134.924 70.0529 135.82 70.0717C136.717 70.0906 137.698 69.7456 138.764 69.0369Z" fill="#2BBC8A"/>
<path d="M127.72 201.64H114.92L114.24 211H114.56C114.88 210.413 115.227 209.88 115.6 209.4C115.973 208.893 116.4 208.467 116.88 208.12C117.387 207.773 117.947 207.507 118.56 207.32C119.2 207.133 119.933 207.04 120.76 207.04C121.933 207.04 123.04 207.24 124.08 207.64C125.12 208.04 126.027 208.613 126.8 209.36C127.573 210.107 128.173 211.027 128.6 212.12C129.053 213.213 129.28 214.453 129.28 215.84C129.28 217.227 129.04 218.507 128.56 219.68C128.107 220.853 127.427 221.88 126.52 222.76C125.64 223.613 124.547 224.28 123.24 224.76C121.96 225.24 120.48 225.48 118.8 225.48C117.493 225.48 116.32 225.333 115.28 225.04C114.267 224.773 113.373 224.4 112.6 223.92C111.827 223.44 111.147 222.893 110.56 222.28C109.973 221.64 109.467 220.987 109.04 220.32L112.84 217.32C113.16 217.853 113.507 218.36 113.88 218.84C114.28 219.293 114.72 219.693 115.2 220.04C115.68 220.387 116.213 220.667 116.8 220.88C117.413 221.067 118.107 221.16 118.88 221.16C120.48 221.16 121.693 220.733 122.52 219.88C123.373 219 123.8 217.8 123.8 216.28V215.96C123.8 214.493 123.373 213.347 122.52 212.52C121.667 211.693 120.467 211.28 118.92 211.28C117.747 211.28 116.787 211.507 116.04 211.96C115.32 212.387 114.733 212.853 114.28 213.36L110 212.76L111.04 197.08H127.72V201.64ZM142.984 225.48C141.171 225.48 139.598 225.16 138.264 224.52C136.931 223.853 135.824 222.907 134.944 221.68C134.091 220.453 133.451 218.947 133.024 217.16C132.624 215.373 132.424 213.333 132.424 211.04C132.424 208.773 132.624 206.747 133.024 204.96C133.451 203.147 134.091 201.627 134.944 200.4C135.824 199.173 136.931 198.24 138.264 197.6C139.598 196.933 141.171 196.6 142.984 196.6C146.611 196.6 149.278 197.867 150.984 200.4C152.691 202.933 153.544 206.48 153.544 211.04C153.544 215.6 152.691 219.147 150.984 221.68C149.278 224.213 146.611 225.48 142.984 225.48ZM142.984 221.28C144.904 221.28 146.251 220.6 147.024 219.24C147.824 217.853 148.224 215.947 148.224 213.52V208.56C148.224 206.133 147.824 204.24 147.024 202.88C146.251 201.493 144.904 200.8 142.984 200.8C141.064 200.8 139.704 201.493 138.904 202.88C138.131 204.24 137.744 206.133 137.744 208.56V213.52C137.744 215.947 138.131 217.853 138.904 219.24C139.704 220.6 141.064 221.28 142.984 221.28ZM142.984 213.4C142.051 213.4 141.398 213.213 141.024 212.84C140.678 212.467 140.504 212.013 140.504 211.48V210.6C140.504 210.067 140.678 209.613 141.024 209.24C141.398 208.867 142.051 208.68 142.984 208.68C143.918 208.68 144.558 208.867 144.904 209.24C145.278 209.613 145.464 210.067 145.464 210.6V211.48C145.464 212.013 145.278 212.467 144.904 212.84C144.558 213.213 143.918 213.4 142.984 213.4ZM161.609 211.24C159.689 211.24 158.182 210.6 157.089 209.32C155.995 208.04 155.449 206.24 155.449 203.92C155.449 201.6 155.995 199.8 157.089 198.52C158.182 197.24 159.689 196.6 161.609 196.6C163.529 196.6 165.035 197.24 166.129 198.52C167.222 199.8 167.769 201.6 167.769 203.92C167.769 206.24 167.222 208.04 166.129 209.32C165.035 210.6 163.529 211.24 161.609 211.24ZM161.609 208.16C162.462 208.16 163.075 207.867 163.449 207.28C163.849 206.667 164.049 205.853 164.049 204.84V203C164.049 201.987 163.849 201.187 163.449 200.6C163.075 199.987 162.462 199.68 161.609 199.68C160.755 199.68 160.129 199.987 159.729 200.6C159.355 201.187 159.169 201.987 159.169 203V204.84C159.169 205.853 159.355 206.667 159.729 207.28C160.129 207.867 160.755 208.16 161.609 208.16ZM174.649 197.08H178.689L172.529 209.08H168.529L174.649 197.08ZM161.409 213H165.409L159.289 225H155.249L161.409 213ZM172.329 225.48C170.409 225.48 168.902 224.84 167.809 223.56C166.715 222.28 166.169 220.48 166.169 218.16C166.169 215.84 166.715 214.04 167.809 212.76C168.902 211.48 170.409 210.84 172.329 210.84C174.249 210.84 175.755 211.48 176.849 212.76C177.942 214.04 178.489 215.84 178.489 218.16C178.489 220.48 177.942 222.28 176.849 223.56C175.755 224.84 174.249 225.48 172.329 225.48ZM172.329 222.4C173.182 222.4 173.795 222.107 174.169 221.52C174.569 220.907 174.769 220.093 174.769 219.08V217.24C174.769 216.227 174.569 215.427 174.169 214.84C173.795 214.227 173.182 213.92 172.329 213.92C171.475 213.92 170.849 214.227 170.449 214.84C170.075 215.427 169.889 216.227 169.889 217.24V219.08C169.889 220.093 170.075 220.907 170.449 221.52C170.849 222.107 171.475 222.4 172.329 222.4Z" fill="#2BBC8A"/>
<path d="M719.72 201.64H706.92L706.24 211H706.56C706.88 210.413 707.227 209.88 707.6 209.4C707.973 208.893 708.4 208.467 708.88 208.12C709.387 207.773 709.947 207.507 710.56 207.32C711.2 207.133 711.933 207.04 712.76 207.04C713.933 207.04 715.04 207.24 716.08 207.64C717.12 208.04 718.027 208.613 718.8 209.36C719.573 210.107 720.173 211.027 720.6 212.12C721.053 213.213 721.28 214.453 721.28 215.84C721.28 217.227 721.04 218.507 720.56 219.68C720.107 220.853 719.427 221.88 718.52 222.76C717.64 223.613 716.547 224.28 715.24 224.76C713.96 225.24 712.48 225.48 710.8 225.48C709.493 225.48 708.32 225.333 707.28 225.04C706.267 224.773 705.373 224.4 704.6 223.92C703.827 223.44 703.147 222.893 702.56 222.28C701.973 221.64 701.467 220.987 701.04 220.32L704.84 217.32C705.16 217.853 705.507 218.36 705.88 218.84C706.28 219.293 706.72 219.693 707.2 220.04C707.68 220.387 708.213 220.667 708.8 220.88C709.413 221.067 710.107 221.16 710.88 221.16C712.48 221.16 713.693 220.733 714.52 219.88C715.373 219 715.8 217.8 715.8 216.28V215.96C715.8 214.493 715.373 213.347 714.52 212.52C713.667 211.693 712.467 211.28 710.92 211.28C709.747 211.28 708.787 211.507 708.04 211.96C707.32 212.387 706.733 212.853 706.28 213.36L702 212.76L703.04 197.08H719.72V201.64ZM734.984 225.48C733.171 225.48 731.598 225.16 730.264 224.52C728.931 223.853 727.824 222.907 726.944 221.68C726.091 220.453 725.451 218.947 725.024 217.16C724.624 215.373 724.424 213.333 724.424 211.04C724.424 208.773 724.624 206.747 725.024 204.96C725.451 203.147 726.091 201.627 726.944 200.4C727.824 199.173 728.931 198.24 730.264 197.6C731.598 196.933 733.171 196.6 734.984 196.6C738.611 196.6 741.278 197.867 742.984 200.4C744.691 202.933 745.544 206.48 745.544 211.04C745.544 215.6 744.691 219.147 742.984 221.68C741.278 224.213 738.611 225.48 734.984 225.48ZM734.984 221.28C736.904 221.28 738.251 220.6 739.024 219.24C739.824 217.853 740.224 215.947 740.224 213.52V208.56C740.224 206.133 739.824 204.24 739.024 202.88C738.251 201.493 736.904 200.8 734.984 200.8C733.064 200.8 731.704 201.493 730.904 202.88C730.131 204.24 729.744 206.133 729.744 208.56V213.52C729.744 215.947 730.131 217.853 730.904 219.24C731.704 220.6 733.064 221.28 734.984 221.28ZM734.984 213.4C734.051 213.4 733.398 213.213 733.024 212.84C732.678 212.467 732.504 212.013 732.504 211.48V210.6C732.504 210.067 732.678 209.613 733.024 209.24C733.398 208.867 734.051 208.68 734.984 208.68C735.918 208.68 736.558 208.867 736.904 209.24C737.278 209.613 737.464 210.067 737.464 210.6V211.48C737.464 212.013 737.278 212.467 736.904 212.84C736.558 213.213 735.918 213.4 734.984 213.4ZM753.609 211.24C751.689 211.24 750.182 210.6 749.089 209.32C747.995 208.04 747.449 206.24 747.449 203.92C747.449 201.6 747.995 199.8 749.089 198.52C750.182 197.24 751.689 196.6 753.609 196.6C755.529 196.6 757.035 197.24 758.129 198.52C759.222 199.8 759.769 201.6 759.769 203.92C759.769 206.24 759.222 208.04 758.129 209.32C757.035 210.6 755.529 211.24 753.609 211.24ZM753.609 208.16C754.462 208.16 755.075 207.867 755.449 207.28C755.849 206.667 756.049 205.853 756.049 204.84V203C756.049 201.987 755.849 201.187 755.449 200.6C755.075 199.987 754.462 199.68 753.609 199.68C752.755 199.68 752.129 199.987 751.729 200.6C751.355 201.187 751.169 201.987 751.169 203V204.84C751.169 205.853 751.355 206.667 751.729 207.28C752.129 207.867 752.755 208.16 753.609 208.16ZM766.649 197.08H770.689L764.529 209.08H760.529L766.649 197.08ZM753.409 213H757.409L751.289 225H747.249L753.409 213ZM764.329 225.48C762.409 225.48 760.902 224.84 759.809 223.56C758.715 222.28 758.169 220.48 758.169 218.16C758.169 215.84 758.715 214.04 759.809 212.76C760.902 211.48 762.409 210.84 764.329 210.84C766.249 210.84 767.755 211.48 768.849 212.76C769.942 214.04 770.489 215.84 770.489 218.16C770.489 220.48 769.942 222.28 768.849 223.56C767.755 224.84 766.249 225.48 764.329 225.48ZM764.329 222.4C765.182 222.4 765.795 222.107 766.169 221.52C766.569 220.907 766.769 220.093 766.769 219.08V217.24C766.769 216.227 766.569 215.427 766.169 214.84C765.795 214.227 765.182 213.92 764.329 213.92C763.475 213.92 762.849 214.227 762.449 214.84C762.075 215.427 761.889 216.227 761.889 217.24V219.08C761.889 220.093 762.075 220.907 762.449 221.52C762.849 222.107 763.475 222.4 764.329 222.4Z" fill="#2BBC8A"/>
<path d="M726.836 45.7768L721.331 47.5693L715.591 55.8553L710.422 52.2746L729.501 24.7335L734.67 28.3142L726.087 40.7038L726.324 40.8678L732.691 38.5047L743.903 34.7102L749.743 38.7556L733.065 44.37L731.058 66.5701L725.219 62.5247L726.836 45.7768ZM750.535 80.0622C749.299 79.2058 748.548 78.2381 748.283 77.1593C748.063 76.0725 748.27 74.9311 748.903 73.7352L748.706 73.5985C747.463 74.606 746.057 75.0913 744.486 75.0544C742.934 74.9912 741.368 74.413 739.79 73.3196C737.738 71.8983 736.481 70.2293 736.018 68.3125C735.555 66.3958 735.989 64.4773 737.319 62.557C740.162 58.4535 744.595 58.4882 750.619 62.6611L754.209 65.1485L755.139 63.8069C756.032 62.518 756.39 61.326 756.215 60.2311C756.039 59.1361 755.241 58.0966 753.82 57.1126C752.531 56.2197 751.319 55.7498 750.184 55.703C749.048 55.6561 747.931 55.8359 746.832 56.2423L745.646 51.8006C747.061 51.1069 748.73 50.8615 750.653 51.0644C752.62 51.2593 754.721 52.1312 756.957 53.6801C759.64 55.5387 761.294 57.6187 761.919 59.92C762.588 62.2133 762.066 64.5962 760.353 67.0689L753.711 76.657L756.118 78.3243L753.494 82.1122L750.535 80.0622ZM743.892 71.0227C745.102 71.861 746.293 72.2772 747.465 72.2715C748.681 72.2577 749.627 71.7641 750.301 70.7908L752.187 68.0683L748.715 65.6629C745.953 63.7496 743.97 63.661 742.768 65.3971L742.221 66.1862C741.656 67.0017 741.53 67.8294 741.844 68.6694C742.157 69.5094 742.84 70.2938 743.892 71.0227ZM760.461 81.0411L766.932 85.5238L781.638 64.2958L775.167 59.813L777.928 55.8279L789.449 63.8093L771.983 89.0225L778.493 93.5325L775.733 97.5177L757.701 85.0262L760.461 81.0411ZM787.318 105.543L794.122 80.1264L799.409 83.7891L796.146 94.3163L793.241 103.398L793.517 103.59L800.999 97.6783L809.708 90.9232L814.798 94.4492L793.394 109.752L787.318 105.543ZM831.568 101.395C830.385 100.575 829.716 99.7423 829.562 98.8963C829.435 98.0685 829.617 97.2995 830.109 96.5893L830.765 95.6423C831.257 94.9321 831.913 94.4911 832.733 94.3193C833.579 94.1657 834.594 94.4989 835.778 95.3189C836.961 96.139 837.617 96.9629 837.744 97.7906C837.898 98.6367 837.728 99.4148 837.236 100.125L836.58 101.072C836.088 101.782 835.419 102.214 834.573 102.368C833.754 102.539 832.752 102.215 831.568 101.395ZM808.805 114.531L815.513 119.177L824.096 106.788L817.388 102.141L820.149 98.1559L831.907 106.301L820.563 122.676L826.798 126.995L824.037 130.98L806.044 118.516L808.805 114.531ZM837.267 140.846C835.031 139.297 833.334 137.615 832.177 135.802C831.038 133.962 830.419 132.131 830.318 130.309L835.136 129.676C835.34 131.18 835.808 132.555 836.54 133.802C837.299 135.067 838.402 136.201 839.848 137.203C841.111 138.078 842.269 138.569 843.324 138.677C844.378 138.784 845.206 138.404 845.808 137.536C846.318 136.799 846.401 136.117 846.057 135.49C845.739 134.881 845.205 134.219 844.455 133.504L841.535 130.722C840.784 130.008 840.083 129.25 839.432 128.448C838.825 127.638 838.361 126.791 838.039 125.907C837.744 125.04 837.649 124.138 837.755 123.199C837.878 122.233 838.287 121.251 838.979 120.251C840.455 118.121 842.374 117.036 844.736 116.999C847.124 116.979 849.712 117.935 852.5 119.867C854.473 121.233 855.952 122.667 856.938 124.167C857.949 125.685 858.556 127.253 858.758 128.873L854.091 129.961C853.95 128.929 853.557 127.839 852.911 126.691C852.311 125.535 851.274 124.447 849.801 123.427C847.223 121.641 845.378 121.55 844.266 123.155C843.756 123.892 843.664 124.587 843.99 125.24C844.333 125.868 844.881 126.539 845.631 127.254L848.512 130.008C849.288 130.741 849.98 131.512 850.587 132.322C851.239 133.123 851.712 133.957 852.007 134.824C852.329 135.708 852.437 136.62 852.331 137.559C852.226 138.498 851.827 139.467 851.134 140.467C849.677 142.571 847.713 143.664 845.244 143.744C842.819 143.816 840.16 142.85 837.267 140.846Z" fill="#2BBC8A"/>
</svg>
